<?xml version="1.0" encoding="UTF-8" standalone="no"?>
<svg xmlns:ffdec="https://www.free-decompiler.com/flash" xmlns:xlink="http://www.w3.org/1999/xlink" ffdec:objectType="shape" height="55.1px" width="51.0px" xmlns="http://www.w3.org/2000/svg">
  <g transform="matrix(1.0, 0.0, 0.0, 1.0, 25.5, 54.1)">
    <path d="M-14.4 -34.0 L-11.65 -41.1 -12.75 -51.15 3.65 -53.1 4.75 -43.05 9.2 -36.8 -14.4 -34.0" fill="#ffffff" fill-opacity="0.3019608" fill-rule="evenodd" stroke="none"/>
    <path d="M-1.6 -27.05 L8.35 -11.3 -7.95 -9.4 -1.6 -27.05" fill="#321e46" fill-rule="evenodd" stroke="none"/>
    <path d="M9.2 -36.8 L24.5 -14.9 17.35 -3.85 -15.2 0.0 -24.5 -9.1 -14.4 -34.0 9.2 -36.8 M-1.6 -27.05 L-7.95 -9.4 8.35 -11.3 -1.6 -27.05" fill="url(#gradient0)" fill-rule="evenodd" stroke="none"/>
    <path d="M-14.4 -34.0 L-11.65 -41.1 -12.75 -51.15 3.65 -53.1 4.75 -43.05 9.2 -36.8 24.5 -14.9 17.35 -3.85 -15.2 0.0 -24.5 -9.1 -14.4 -34.0 M-1.6 -27.05 L8.35 -11.3 -7.95 -9.4 -1.6 -27.05 Z" fill="none" stroke="#000000" stroke-linecap="round" stroke-linejoin="round" stroke-width="2.0"/>
  </g>
  <defs>
    <radialGradient cx="0" cy="0" gradientTransform="matrix(0.0504, -0.0059, 0.0058, 0.0517, -13.8, -31.55)" gradientUnits="userSpaceOnUse" id="gradient0" r="819.2" spreadMethod="pad">
      <stop offset="0.0" stop-color="#8c00c8" stop-opacity="0.7019608"/>
      <stop offset="1.0" stop-color="#640096" stop-opacity="0.9019608"/>
    </radialGradient>
  </defs>
</svg>
