<?xml version="1.0" encoding="UTF-8" standalone="no"?>
<svg xmlns:ffdec="https://www.free-decompiler.com/flash" xmlns:xlink="http://www.w3.org/1999/xlink" ffdec:objectType="shape" height="22.0px" width="22.0px" xmlns="http://www.w3.org/2000/svg">
  <g transform="matrix(1.0, 0.0, 0.0, 1.0, 1.0, 1.0)">
    <path d="M0.0 5.0 L5.0 10.0 15.0 10.0 20.0 5.0 20.0 20.0 0.0 20.0 0.0 5.0" fill="#0a0a3c" fill-rule="evenodd" stroke="none"/>
    <path d="M0.0 5.0 L5.0 0.0 15.0 0.0 20.0 5.0 15.0 10.0 5.0 10.0 0.0 5.0" fill="#141446" fill-rule="evenodd" stroke="none"/>
    <path d="M20.0 5.0 L15.0 0.0 5.0 0.0 0.0 5.0 0.0 20.0 20.0 20.0 20.0 5.0 Z" fill="none" stroke="#000000" stroke-linecap="round" stroke-linejoin="round" stroke-width="2.0"/>
    <path d="M11.5 2.5 L11.5 4.2 Q12.35 4.35 13.1 4.8 L14.25 3.65 16.35 5.75 15.2 6.95 15.85 8.5 17.5 8.5 17.5 11.5 15.85 11.5 15.2 13.05 16.4 14.25 14.25 16.35 13.05 15.2 11.5 15.85 11.5 17.5 8.5 17.5 8.5 15.85 6.95 15.2 5.75 16.35 3.65 14.25 4.85 13.05 4.2 11.5 2.5 11.5 2.5 8.5 4.2 8.5 Q4.4 7.65 4.85 6.95 L3.65 5.75 5.75 3.65 6.95 4.8 Q7.7 4.35 8.5 4.2 L8.5 2.5 11.5 2.5 M12.65 7.35 Q11.55 6.25 10.0 6.25 8.45 6.25 7.35 7.35 6.25 8.45 6.25 10.0 6.25 11.55 7.35 12.65 8.45 13.75 10.0 13.75 11.55 13.75 12.65 12.65 13.75 11.55 13.75 10.0 13.75 8.45 12.65 7.35" fill="#cccccc" fill-rule="evenodd" stroke="none"/>
  </g>
</svg>
