<?xml version="1.0" encoding="UTF-8" standalone="no"?>
<svg xmlns:ffdec="https://www.free-decompiler.com/flash" xmlns:xlink="http://www.w3.org/1999/xlink" ffdec:objectType="shape" height="22.0px" width="22.0px" xmlns="http://www.w3.org/2000/svg">
  <g transform="matrix(1.0, 0.0, 0.0, 1.0, 1.0, 1.0)">
    <path d="M0.0 5.0 L5.0 10.0 15.0 10.0 20.0 5.0 20.0 20.0 0.0 20.0 0.0 5.0" fill="#6e6e3c" fill-rule="evenodd" stroke="none"/>
    <path d="M20.0 5.0 L15.0 10.0 5.0 10.0 0.0 5.0 5.0 0.0 15.0 0.0 20.0 5.0" fill="#787846" fill-rule="evenodd" stroke="none"/>
    <path d="M20.0 5.0 L15.0 0.0 5.0 0.0 0.0 5.0 0.0 20.0 20.0 20.0 20.0 5.0 Z" fill="none" stroke="#000000" stroke-linecap="round" stroke-linejoin="round" stroke-width="2.0"/>
    <path d="M15.0 9.95 Q15.0 7.9 13.55 6.45 12.05 4.95 10.0 4.95 7.95 4.95 6.45 6.45 5.0 7.9 5.0 9.95 5.0 12.05 6.45 13.5 7.95 14.95 10.0 14.95 12.05 14.95 13.55 13.5 15.0 12.05 15.0 9.95 M17.5 10.0 Q17.5 13.1 15.3 15.3 13.1 17.5 10.0 17.5 6.9 17.5 4.7 15.3 2.5 13.1 2.5 10.0 2.5 6.9 4.7 4.7 6.9 2.5 10.0 2.5 13.1 2.5 15.3 4.7 17.5 6.9 17.5 10.0" fill="#c8c828" fill-rule="evenodd" stroke="none"/>
  </g>
</svg>
