<?xml version="1.0" encoding="UTF-8" standalone="no"?>
<svg xmlns:ffdec="https://www.free-decompiler.com/flash" xmlns:xlink="http://www.w3.org/1999/xlink" ffdec:objectType="shape" height="22.0px" width="22.0px" xmlns="http://www.w3.org/2000/svg">
  <g transform="matrix(1.0, 0.0, 0.0, 1.0, 1.0, 1.0)">
    <path d="M0.0 5.0 L5.0 10.0 15.0 10.0 20.0 5.0 20.0 20.0 0.0 20.0 0.0 5.0" fill="#6e3c3c" fill-rule="evenodd" stroke="none"/>
    <path d="M20.0 5.0 L15.0 10.0 5.0 10.0 0.0 5.0 5.0 0.0 15.0 0.0 20.0 5.0" fill="#784646" fill-rule="evenodd" stroke="none"/>
    <path d="M20.0 5.0 L15.0 0.0 5.0 0.0 0.0 5.0 0.0 20.0 20.0 20.0 20.0 5.0 Z" fill="none" stroke="#000000" stroke-linecap="round" stroke-linejoin="round" stroke-width="2.0"/>
    <path d="M11.0 5.0 L15.0 5.0 15.0 15.0 11.0 15.0 11.0 5.0 M9.0 15.0 L5.0 15.0 5.0 5.0 9.0 5.0 9.0 15.0" fill="#fa3232" fill-rule="evenodd" stroke="none"/>
  </g>
</svg>
