<?xml version="1.0" encoding="UTF-8" standalone="no"?>
<svg xmlns:ffdec="https://www.free-decompiler.com/flash" xmlns:xlink="http://www.w3.org/1999/xlink" ffdec:objectType="morphshape" height="43.0px" width="35.0px" xmlns="http://www.w3.org/2000/svg">
  <g transform="matrix(1.0, 0.0, 0.0, 1.0, 17.5, 50.0)">
    <path d="M-17.5 -22.85 L-17.5 -22.85 Q-17.5 -20.35 -16.1 -19.15 L-15.9 -19.0 -13.0 -17.25 -12.8 -17.15 -8.6 -17.15 -8.3 -17.15 Q-8.3 -18.25 -7.75 -19.35 L-7.65 -19.55 -7.55 -19.75 -7.5 -19.95 Q-7.15 -20.6 -6.85 -22.1 L-6.85 -22.4 -5.5 -21.45 -5.3 -21.25 -5.0 -21.25 -4.7 -21.25 -4.6 -24.05 -4.6 -24.35 -4.35 -28.65 -4.35 -28.85 -4.55 -31.45 -4.55 -31.75 -4.75 -33.55 -4.75 -33.85 0.85 -33.85 1.15 -33.85 0.75 -26.05 0.75 -25.85 0.55 -21.65 0.55 -21.45 Q0.55 -16.95 0.85 -14.35 L0.85 -14.15 3.15 -15.95 3.35 -16.05 3.7 -16.3 3.85 -16.4 4.05 -14.3 4.05 -14.1 4.2 -13.3 4.2 -13.1 Q2.45 -12.25 1.55 -11.4 L1.4 -11.2 Q0.95 -10.65 0.9 -10.15 L0.9 -9.95 1.0 -8.7 1.0 -8.5 Q1.8 -8.45 2.6 -8.45 L2.8 -8.45 Q4.3 -8.75 5.55 -8.05 L5.75 -7.95 Q6.6 -7.5 7.4 -7.05 L7.65 -7.0 Q9.9 -7.0 13.7 -11.25 L13.9 -11.45 Q15.85 -13.55 17.3 -15.8 L17.5 -16.0 16.05 -18.95 15.95 -19.15 14.3 -22.35 14.2 -22.65 14.2 -24.9 14.2 -25.2 14.2 -25.7 14.2 -26.0 Q14.85 -26.7 15.5 -28.05 L15.6 -28.25 Q16.7 -30.65 16.8 -32.4 L16.8 -32.7 Q16.8 -35.9 13.05 -41.95 L12.95 -42.15 Q8.15 -49.9 2.35 -50.0 L2.25 -50.0 1.15 -50.0 -10.55 -49.0 Q-17.15 -48.15 -17.15 -38.5 L-17.0 -34.05 Q-16.65 -32.45 -15.5 -30.6 L-15.75 -30.35 Q-17.5 -28.45 -17.5 -22.85" fill="#0000ff" fill-rule="evenodd" stroke="none">
      <animate attributeName="fill" dur="2s" repeatCount="indefinite" values="#0000ff;#ff0001"/>
      <animate attributeName="fill-opacity" dur="2s" repeatCount="indefinite" values="1.0;1.0"/>
      <animate attributeName="d" dur="2s" repeatCount="indefinite" values="M-17.5 -22.85 L-17.5 -22.85 Q-17.5 -20.35 -16.1 -19.15 L-15.9 -19.0 -13.0 -17.25 -12.8 -17.15 -8.6 -17.15 -8.3 -17.15 Q-8.3 -18.25 -7.75 -19.35 L-7.65 -19.55 -7.55 -19.75 -7.5 -19.95 Q-7.15 -20.6 -6.85 -22.1 L-6.85 -22.4 -5.5 -21.45 -5.3 -21.25 -5.0 -21.25 -4.7 -21.25 -4.6 -24.05 -4.6 -24.35 -4.35 -28.65 -4.35 -28.85 -4.55 -31.45 -4.55 -31.75 -4.75 -33.55 -4.75 -33.85 0.85 -33.85 1.15 -33.85 0.75 -26.05 0.75 -25.85 0.55 -21.65 0.55 -21.45 Q0.55 -16.95 0.85 -14.35 L0.85 -14.15 3.15 -15.95 3.35 -16.05 3.7 -16.3 3.85 -16.4 4.05 -14.3 4.05 -14.1 4.2 -13.3 4.2 -13.1 Q2.45 -12.25 1.55 -11.4 L1.4 -11.2 Q0.95 -10.65 0.9 -10.15 L0.9 -9.95 1.0 -8.7 1.0 -8.5 Q1.8 -8.45 2.6 -8.45 L2.8 -8.45 Q4.3 -8.75 5.55 -8.05 L5.75 -7.95 Q6.6 -7.5 7.4 -7.05 L7.65 -7.0 Q9.9 -7.0 13.7 -11.25 L13.9 -11.45 Q15.85 -13.55 17.3 -15.8 L17.5 -16.0 16.05 -18.95 15.95 -19.15 14.3 -22.35 14.2 -22.65 14.2 -24.9 14.2 -25.2 14.2 -25.7 14.2 -26.0 Q14.85 -26.7 15.5 -28.05 L15.6 -28.25 Q16.7 -30.65 16.8 -32.4 L16.8 -32.7 Q16.8 -35.9 13.05 -41.95 L12.95 -42.15 Q8.15 -49.9 2.35 -50.0 L2.25 -50.0 1.15 -50.0 -10.55 -49.0 Q-17.15 -48.15 -17.15 -38.5 L-17.0 -34.05 Q-16.65 -32.45 -15.5 -30.6 L-15.75 -30.35 Q-17.5 -28.45 -17.5 -22.85;M-17.5 -22.85 L-17.5 -22.55 Q-17.4 -20.15 -15.9 -19.0 L-15.65 -18.9 -12.8 -17.15 -12.5 -17.15 -8.3 -17.15 -8.3 -17.45 Q-8.25 -18.5 -7.65 -19.55 L-7.6 -19.75 -7.5 -19.95 -7.35 -20.25 Q-7.05 -21.0 -6.85 -22.4 L-6.55 -22.2 -5.3 -21.25 -5.0 -21.25 -4.7 -21.25 -4.7 -21.45 -4.6 -24.35 -4.6 -24.65 -4.35 -28.85 -4.35 -29.05 -4.55 -31.75 -4.55 -32.0 -4.75 -33.85 -4.45 -33.85 1.15 -33.85 1.15 -33.6 0.75 -25.85 0.75 -25.55 0.55 -21.45 0.55 -21.15 Q0.55 -16.7 0.85 -14.15 L1.05 -14.3 3.35 -16.05 3.55 -16.15 3.85 -16.4 3.85 -16.15 4.05 -14.1 4.1 -13.8 4.2 -13.1 4.0 -13.0 Q2.25 -12.15 1.4 -11.2 L1.25 -11.0 Q0.85 -10.4 0.9 -9.95 L0.9 -9.75 1.0 -8.5 1.2 -8.45 Q1.85 -8.3 2.8 -8.45 L3.1 -8.45 Q4.55 -8.7 5.75 -7.95 L6.0 -7.75 Q7.15 -7.0 7.65 -7.0 L7.85 -7.0 Q10.15 -7.25 13.9 -11.45 L14.1 -11.65 Q16.0 -13.75 17.5 -16.0 L17.4 -16.2 15.95 -19.15 15.85 -19.35 14.2 -22.65 14.2 -22.85 14.2 -25.2 14.2 -25.45 14.2 -26.0 14.4 -26.2 Q15.0 -27.25 15.6 -28.25 L15.7 -28.45 Q16.8 -30.9 16.8 -32.7 L16.8 -32.9 Q16.65 -36.15 12.95 -42.15 L12.95 -42.15 Q8.1 -49.9 2.35 -50.0 L2.15 -50.0 1.15 -50.0 -10.55 -49.0 Q-17.15 -48.15 -17.15 -38.5 L-17.0 -34.05 Q-16.65 -32.45 -15.5 -30.6 L-15.75 -30.35 Q-17.5 -28.45 -17.5 -22.85"/>
    </path>
    <path d="M-17.5 -22.85 Q-17.5 -28.45 -15.75 -30.35 L-15.5 -30.6 Q-16.65 -32.45 -17.0 -34.05 L-17.15 -38.5 Q-17.15 -48.15 -10.55 -49.0 L1.15 -50.0 2.25 -50.0 2.35 -50.0 Q8.15 -49.9 12.95 -42.15 L13.05 -41.95 Q16.8 -35.9 16.8 -32.7 L16.8 -32.4 Q16.7 -30.65 15.6 -28.25 L15.5 -28.05 Q14.85 -26.7 14.2 -26.0 L14.2 -25.7 14.2 -25.2 14.2 -24.9 14.2 -22.65 14.3 -22.35 15.95 -19.15 16.05 -18.95 17.5 -16.0 17.3 -15.8 Q15.85 -13.55 13.9 -11.45 L13.7 -11.25 Q9.9 -7.0 7.65 -7.0 L7.4 -7.05 Q6.6 -7.5 5.75 -7.95 L5.55 -8.05 Q4.3 -8.75 2.8 -8.45 L2.6 -8.45 Q1.8 -8.45 1.0 -8.5 L1.0 -8.7 0.9 -9.95 0.9 -10.15 Q0.95 -10.65 1.4 -11.2 L1.55 -11.4 Q2.45 -12.25 4.2 -13.1 L4.2 -13.3 4.05 -14.1 4.05 -14.3 3.85 -16.4 3.7 -16.3 3.35 -16.05 3.15 -15.95 0.85 -14.15 0.85 -14.35 Q0.55 -16.95 0.55 -21.45 L0.55 -21.65 0.75 -25.85 0.75 -26.05 1.15 -33.85 0.85 -33.85 -4.75 -33.85 -4.75 -33.55 -4.55 -31.75 -4.55 -31.45 -4.35 -28.85 -4.35 -28.65 -4.6 -24.35 -4.6 -24.05 -4.7 -21.25 -5.0 -21.25 -5.3 -21.25 -5.5 -21.45 -6.85 -22.4 -6.85 -22.1 Q-7.15 -20.6 -7.5 -19.95 L-7.55 -19.75 -7.65 -19.55 -7.75 -19.35 Q-8.3 -18.25 -8.3 -17.15 L-8.6 -17.15 -12.8 -17.15 -13.0 -17.25 -15.9 -19.0 -16.1 -19.15 Q-17.5 -20.35 -17.5 -22.85 L-17.5 -22.85 Z" fill="none" stroke="#000000" stroke-linecap="round" stroke-linejoin="round" stroke-opacity="0.0" stroke-width="0.0">
      <animate attributeName="stroke" dur="2s" repeatCount="indefinite" values="#000000;#000001"/>
      <animate attributeName="stroke-width" dur="2s" repeatCount="indefinite" values="0.0;0.0"/>
      <animate attributeName="fill-opacity" dur="2s" repeatCount="indefinite" values="0.0;0.0"/>
      <animate attributeName="d" dur="2s" repeatCount="indefinite" values="M-17.5 -22.85 Q-17.5 -28.45 -15.75 -30.35 L-15.5 -30.6 Q-16.65 -32.45 -17.0 -34.05 L-17.15 -38.5 Q-17.15 -48.15 -10.55 -49.0 L1.15 -50.0 2.25 -50.0 2.35 -50.0 Q8.15 -49.9 12.95 -42.15 L13.05 -41.95 Q16.8 -35.9 16.8 -32.7 L16.8 -32.4 Q16.7 -30.65 15.6 -28.25 L15.5 -28.05 Q14.85 -26.7 14.2 -26.0 L14.2 -25.7 14.2 -25.2 14.2 -24.9 14.2 -22.65 14.3 -22.35 15.95 -19.15 16.05 -18.95 17.5 -16.0 17.3 -15.8 Q15.85 -13.55 13.9 -11.45 L13.7 -11.25 Q9.9 -7.0 7.65 -7.0 L7.4 -7.05 Q6.6 -7.5 5.75 -7.95 L5.55 -8.05 Q4.3 -8.75 2.8 -8.45 L2.6 -8.45 Q1.8 -8.45 1.0 -8.5 L1.0 -8.7 0.9 -9.95 0.9 -10.15 Q0.95 -10.65 1.4 -11.2 L1.55 -11.4 Q2.45 -12.25 4.2 -13.1 L4.2 -13.3 4.05 -14.1 4.05 -14.3 3.85 -16.4 3.7 -16.3 3.35 -16.05 3.15 -15.95 0.85 -14.15 0.85 -14.35 Q0.55 -16.95 0.55 -21.45 L0.55 -21.65 0.75 -25.85 0.75 -26.05 1.15 -33.85 0.85 -33.85 -4.75 -33.85 -4.75 -33.55 -4.55 -31.75 -4.55 -31.45 -4.35 -28.85 -4.35 -28.65 -4.6 -24.35 -4.6 -24.05 -4.7 -21.25 -5.0 -21.25 -5.3 -21.25 -5.5 -21.45 -6.85 -22.4 -6.85 -22.1 Q-7.15 -20.6 -7.5 -19.95 L-7.55 -19.75 -7.65 -19.55 -7.75 -19.35 Q-8.3 -18.25 -8.3 -17.15 L-8.6 -17.15 -12.8 -17.15 -13.0 -17.25 -15.9 -19.0 -16.1 -19.15 Q-17.5 -20.35 -17.5 -22.85 L-17.5 -22.85 Z;M-17.5 -22.85 Q-17.5 -28.45 -15.75 -30.35 L-15.5 -30.6 Q-16.65 -32.45 -17.0 -34.05 L-17.15 -38.5 Q-17.15 -48.15 -10.55 -49.0 L1.15 -50.0 2.15 -50.0 2.35 -50.0 Q8.1 -49.9 12.95 -42.15 L12.95 -42.15 Q16.65 -36.15 16.8 -32.9 L16.8 -32.7 Q16.8 -30.9 15.7 -28.45 L15.6 -28.25 Q15.0 -27.25 14.4 -26.2 L14.2 -26.0 14.2 -25.45 14.2 -25.2 14.2 -22.85 14.2 -22.65 15.85 -19.35 15.95 -19.15 17.4 -16.2 17.5 -16.0 Q16.0 -13.75 14.1 -11.65 L13.9 -11.45 Q10.15 -7.25 7.85 -7.0 L7.65 -7.0 Q7.15 -7.0 6.0 -7.75 L5.75 -7.95 Q4.55 -8.7 3.1 -8.45 L2.8 -8.45 Q1.85 -8.3 1.2 -8.45 L1.0 -8.5 0.9 -9.75 0.9 -9.95 Q0.85 -10.4 1.25 -11.0 L1.4 -11.2 Q2.25 -12.15 4.0 -13.0 L4.2 -13.1 4.1 -13.8 4.05 -14.1 3.85 -16.15 3.85 -16.4 3.55 -16.15 3.35 -16.05 1.05 -14.3 0.85 -14.15 Q0.55 -16.7 0.55 -21.15 L0.55 -21.45 0.75 -25.55 0.75 -25.85 1.15 -33.6 1.15 -33.85 -4.45 -33.85 -4.75 -33.85 -4.55 -32.0 -4.55 -31.75 -4.35 -29.05 -4.35 -28.85 -4.6 -24.65 -4.6 -24.35 -4.7 -21.45 -4.7 -21.25 -5.0 -21.25 -5.3 -21.25 -6.55 -22.2 -6.85 -22.4 Q-7.05 -21.0 -7.35 -20.25 L-7.5 -19.95 -7.6 -19.75 -7.65 -19.55 Q-8.25 -18.5 -8.3 -17.45 L-8.3 -17.15 -12.5 -17.15 -12.8 -17.15 -15.65 -18.9 -15.9 -19.0 Q-17.4 -20.15 -17.5 -22.55 L-17.5 -22.85 Z"/>
    </path>
  </g>
</svg>
