<?xml version="1.0" encoding="UTF-8" standalone="no"?>
<svg xmlns:ffdec="https://www.free-decompiler.com/flash" xmlns:xlink="http://www.w3.org/1999/xlink" ffdec:objectType="morphshape" height="43.0px" width="35.0px" xmlns="http://www.w3.org/2000/svg">
  <g transform="matrix(1.0, 0.0, 0.0, 1.0, 17.5, 50.0)">
    <path d="M-17.5 -22.85 Q-17.5 -20.2 -15.9 -19.0 L-12.8 -17.15 -8.3 -17.15 Q-8.3 -18.35 -7.65 -19.55 L-7.5 -19.95 Q-7.1 -20.65 -6.85 -22.4 L-5.3 -21.25 -4.7 -21.25 -4.6 -24.35 -4.35 -28.85 -4.55 -31.75 -4.75 -33.85 1.15 -33.85 0.75 -25.85 0.55 -21.45 Q0.55 -16.75 0.85 -14.15 L3.35 -16.05 3.85 -16.4 4.05 -14.1 4.2 -13.1 Q2.3 -12.2 1.4 -11.2 0.85 -10.5 0.9 -9.95 L1.0 -8.5 2.8 -8.45 Q4.45 -8.75 5.75 -7.95 7.1 -7.0 7.65 -7.0 9.95 -7.0 13.9 -11.45 15.95 -13.65 17.5 -16.0 L15.95 -19.15 Q14.3 -22.2 14.2 -22.65 L14.2 -25.2 14.2 -26.0 Q14.9 -26.75 15.6 -28.25 16.8 -30.85 16.8 -32.7 16.8 -35.95 12.95 -42.15 8.05 -50.0 2.15 -50.0 L-10.55 -49.0 Q-17.15 -48.15 -17.15 -38.5 L-17.0 -34.05 Q-16.65 -32.45 -15.5 -30.6 L-15.75 -30.35 Q-17.5 -28.45 -17.5 -22.85" fill="#ff0000" fill-rule="evenodd" stroke="none">
      <animate attributeName="fill" dur="2s" repeatCount="indefinite" values="#ff0000;#00ff01"/>
      <animate attributeName="fill-opacity" dur="2s" repeatCount="indefinite" values="1.0;1.0"/>
      <animate attributeName="d" dur="2s" repeatCount="indefinite" values="M-17.5 -22.85 Q-17.5 -20.2 -15.9 -19.0 L-12.8 -17.15 -8.3 -17.15 Q-8.3 -18.35 -7.65 -19.55 L-7.5 -19.95 Q-7.1 -20.65 -6.85 -22.4 L-5.3 -21.25 -4.7 -21.25 -4.6 -24.35 -4.35 -28.85 -4.55 -31.75 -4.75 -33.85 1.15 -33.85 0.75 -25.85 0.55 -21.45 Q0.55 -16.75 0.85 -14.15 L3.35 -16.05 3.85 -16.4 4.05 -14.1 4.2 -13.1 Q2.3 -12.2 1.4 -11.2 0.85 -10.5 0.9 -9.95 L1.0 -8.5 2.8 -8.45 Q4.45 -8.75 5.75 -7.95 7.1 -7.0 7.65 -7.0 9.95 -7.0 13.9 -11.45 15.95 -13.65 17.5 -16.0 L15.95 -19.15 Q14.3 -22.2 14.2 -22.65 L14.2 -25.2 14.2 -26.0 Q14.9 -26.75 15.6 -28.25 16.8 -30.85 16.8 -32.7 16.8 -35.95 12.95 -42.15 8.05 -50.0 2.15 -50.0 L-10.55 -49.0 Q-17.15 -48.15 -17.15 -38.5 L-17.0 -34.05 Q-16.65 -32.45 -15.5 -30.6 L-15.75 -30.35 Q-17.5 -28.45 -17.5 -22.85;M-17.5 -22.85 Q-17.5 -20.2 -15.9 -19.0 L-12.8 -17.15 -8.3 -17.15 Q-8.3 -18.35 -7.65 -19.55 L-7.5 -19.95 Q-7.1 -20.65 -6.85 -22.4 L-5.3 -21.25 -4.7 -21.25 -4.6 -24.35 -4.35 -28.85 -4.55 -31.75 -4.75 -33.85 1.15 -33.85 0.75 -25.85 0.55 -21.45 Q0.55 -16.75 0.85 -14.15 L3.35 -16.05 3.85 -16.4 4.05 -14.1 4.2 -13.1 Q2.3 -12.2 1.4 -11.2 0.85 -10.5 0.9 -9.95 L1.0 -8.5 2.8 -8.45 Q4.45 -8.75 5.75 -7.95 7.1 -7.0 7.65 -7.0 9.95 -7.0 13.9 -11.45 15.95 -13.65 17.5 -16.0 L15.95 -19.15 Q14.3 -22.2 14.2 -22.65 L14.2 -25.2 14.2 -26.0 Q14.9 -26.75 15.6 -28.25 16.8 -30.85 16.8 -32.7 16.8 -35.95 12.95 -42.15 8.05 -50.0 2.15 -50.0 L-10.55 -49.0 Q-17.15 -48.15 -17.15 -38.5 L-17.0 -34.05 Q-16.65 -32.45 -15.5 -30.6 L-15.75 -30.35 Q-17.5 -28.45 -17.5 -22.85"/>
    </path>
    <path d="M-17.5 -22.85 Q-17.5 -28.45 -15.75 -30.35 L-15.5 -30.6 Q-16.65 -32.45 -17.0 -34.05 L-17.15 -38.5 Q-17.15 -48.15 -10.55 -49.0 L2.15 -50.0 Q8.05 -50.0 12.95 -42.15 16.8 -35.95 16.8 -32.7 16.8 -30.85 15.6 -28.25 14.9 -26.75 14.2 -26.0 L14.2 -25.2 14.2 -22.65 Q14.3 -22.2 15.95 -19.15 L17.5 -16.0 Q15.95 -13.65 13.9 -11.45 9.95 -7.0 7.65 -7.0 7.1 -7.0 5.75 -7.95 4.45 -8.75 2.8 -8.45 L1.0 -8.5 0.9 -9.95 Q0.85 -10.5 1.4 -11.2 2.3 -12.2 4.2 -13.1 L4.05 -14.1 3.85 -16.4 3.35 -16.05 0.85 -14.15 Q0.55 -16.75 0.55 -21.45 L0.75 -25.85 1.15 -33.85 -4.75 -33.85 -4.55 -31.75 -4.35 -28.85 -4.6 -24.35 -4.7 -21.25 -5.3 -21.25 -6.85 -22.4 Q-7.1 -20.65 -7.5 -19.95 L-7.65 -19.55 Q-8.3 -18.35 -8.3 -17.15 L-12.8 -17.15 -15.9 -19.0 Q-17.5 -20.2 -17.5 -22.85 Z" fill="none" stroke="#000000" stroke-linecap="round" stroke-linejoin="round" stroke-opacity="0.0" stroke-width="0.0">
      <animate attributeName="stroke" dur="2s" repeatCount="indefinite" values="#000000;#000001"/>
      <animate attributeName="stroke-width" dur="2s" repeatCount="indefinite" values="0.0;0.0"/>
      <animate attributeName="fill-opacity" dur="2s" repeatCount="indefinite" values="0.0;0.0"/>
      <animate attributeName="d" dur="2s" repeatCount="indefinite" values="M-17.5 -22.85 Q-17.5 -28.45 -15.75 -30.35 L-15.5 -30.6 Q-16.65 -32.45 -17.0 -34.05 L-17.15 -38.5 Q-17.15 -48.15 -10.55 -49.0 L2.15 -50.0 Q8.05 -50.0 12.95 -42.15 16.8 -35.95 16.8 -32.7 16.8 -30.85 15.6 -28.25 14.9 -26.75 14.2 -26.0 L14.2 -25.2 14.2 -22.65 Q14.3 -22.2 15.95 -19.15 L17.5 -16.0 Q15.95 -13.65 13.9 -11.45 9.95 -7.0 7.65 -7.0 7.1 -7.0 5.75 -7.95 4.45 -8.75 2.8 -8.45 L1.0 -8.5 0.9 -9.95 Q0.85 -10.5 1.4 -11.2 2.3 -12.2 4.2 -13.1 L4.05 -14.1 3.85 -16.4 3.35 -16.05 0.85 -14.15 Q0.55 -16.75 0.55 -21.45 L0.75 -25.85 1.15 -33.85 -4.75 -33.85 -4.55 -31.75 -4.35 -28.85 -4.6 -24.35 -4.7 -21.25 -5.3 -21.25 -6.85 -22.4 Q-7.1 -20.65 -7.5 -19.95 L-7.65 -19.55 Q-8.3 -18.35 -8.3 -17.15 L-12.8 -17.15 -15.9 -19.0 Q-17.5 -20.2 -17.5 -22.85 Z;M-17.5 -22.85 Q-17.5 -28.45 -15.75 -30.35 L-15.5 -30.6 Q-16.65 -32.45 -17.0 -34.05 L-17.15 -38.5 Q-17.15 -48.15 -10.55 -49.0 L2.15 -50.0 Q8.05 -50.0 12.95 -42.15 16.8 -35.95 16.8 -32.7 16.8 -30.85 15.6 -28.25 14.9 -26.75 14.2 -26.0 L14.2 -25.2 14.2 -22.65 Q14.3 -22.2 15.95 -19.15 L17.5 -16.0 Q15.95 -13.65 13.9 -11.45 9.95 -7.0 7.65 -7.0 7.1 -7.0 5.75 -7.95 4.45 -8.75 2.8 -8.45 L1.0 -8.5 0.9 -9.95 Q0.85 -10.5 1.4 -11.2 2.3 -12.2 4.2 -13.1 L4.05 -14.1 3.85 -16.4 3.35 -16.05 0.85 -14.15 Q0.55 -16.75 0.55 -21.45 L0.75 -25.85 1.15 -33.85 -4.75 -33.85 -4.55 -31.75 -4.35 -28.85 -4.6 -24.35 -4.7 -21.25 -5.3 -21.25 -6.85 -22.4 Q-7.1 -20.65 -7.5 -19.95 L-7.65 -19.55 Q-8.3 -18.35 -8.3 -17.15 L-12.8 -17.15 -15.9 -19.0 Q-17.5 -20.2 -17.5 -22.85 Z"/>
    </path>
  </g>
</svg>
