<?xml version="1.0" encoding="UTF-8" standalone="no"?>
<svg xmlns:ffdec="https://www.free-decompiler.com/flash" xmlns:xlink="http://www.w3.org/1999/xlink" ffdec:objectType="morphshape" height="29.75px" width="23.5px" xmlns="http://www.w3.org/2000/svg">
  <g transform="matrix(1.0, 0.0, 0.0, 1.0, 12.0, 47.25)">
    <path d="M5.5 -37.05 Q5.4 -36.6 5.75 -35.75 6.45 -34.0 8.5 -34.0 9.75 -34.0 11.5 -36.9 11.5 -39.55 8.5 -39.75 5.5 -39.9 5.5 -37.05 M5.0 -20.55 Q4.9 -20.1 5.25 -19.25 5.95 -17.5 8.0 -17.5 9.25 -17.5 11.0 -20.4 11.0 -23.05 8.0 -23.25 5.0 -23.4 5.0 -20.55 M-4.0 -44.55 L-3.75 -43.25 Q-3.05 -41.5 -1.0 -41.5 0.2 -41.5 2.0 -44.4 2.0 -47.05 -1.0 -47.25 -4.0 -47.4 -4.0 -44.55 M-12.0 -37.55 L-11.75 -36.25 Q-11.05 -34.5 -9.0 -34.5 -7.65 -34.5 -6.8 -35.35 -6.0 -36.2 -6.0 -37.4 -6.0 -40.7 -9.0 -40.45 -12.0 -40.2 -12.0 -37.55" fill="#990000" fill-rule="evenodd" stroke="none">
      <animate attributeName="fill" dur="2s" repeatCount="indefinite" values="#990000;#009901"/>
      <animate attributeName="fill-opacity" dur="2s" repeatCount="indefinite" values="1.0;1.0"/>
      <animate attributeName="d" dur="2s" repeatCount="indefinite" values="M5.5 -37.05 Q5.4 -36.6 5.75 -35.75 6.45 -34.0 8.5 -34.0 9.75 -34.0 11.5 -36.9 11.5 -39.55 8.5 -39.75 5.5 -39.9 5.5 -37.05 M5.0 -20.55 Q4.9 -20.1 5.25 -19.25 5.95 -17.5 8.0 -17.5 9.25 -17.5 11.0 -20.4 11.0 -23.05 8.0 -23.25 5.0 -23.4 5.0 -20.55 M-4.0 -44.55 L-3.75 -43.25 Q-3.05 -41.5 -1.0 -41.5 0.2 -41.5 2.0 -44.4 2.0 -47.05 -1.0 -47.25 -4.0 -47.4 -4.0 -44.55 M-12.0 -37.55 L-11.75 -36.25 Q-11.05 -34.5 -9.0 -34.5 -7.65 -34.5 -6.8 -35.35 -6.0 -36.2 -6.0 -37.4 -6.0 -40.7 -9.0 -40.45 -12.0 -40.2 -12.0 -37.55;M5.5 -37.05 Q5.4 -36.6 5.75 -35.75 6.45 -34.0 8.5 -34.0 9.75 -34.0 11.5 -36.9 11.5 -39.55 8.5 -39.75 5.5 -39.9 5.5 -37.05 M5.0 -20.55 Q4.9 -20.1 5.25 -19.25 5.95 -17.5 8.0 -17.5 9.25 -17.5 11.0 -20.4 11.0 -23.05 8.0 -23.25 5.0 -23.4 5.0 -20.55 M-4.0 -44.55 L-3.75 -43.25 Q-3.05 -41.5 -1.0 -41.5 0.2 -41.5 2.0 -44.4 2.0 -47.05 -1.0 -47.25 -4.0 -47.4 -4.0 -44.55 M-12.0 -37.55 L-11.75 -36.25 Q-11.05 -34.5 -9.0 -34.5 -7.65 -34.5 -6.8 -35.35 -6.0 -36.2 -6.0 -37.4 -6.0 -40.7 -9.0 -40.45 -12.0 -40.2 -12.0 -37.55"/>
    </path>
    <path d="M-12.0 -37.55 Q-12.0 -40.2 -9.0 -40.45 -6.0 -40.7 -6.0 -37.4 -6.0 -36.2 -6.8 -35.35 -7.65 -34.5 -9.0 -34.5 -11.05 -34.5 -11.75 -36.25 L-12.0 -37.55 M-4.0 -44.55 Q-4.0 -47.4 -1.0 -47.25 2.0 -47.05 2.0 -44.4 0.2 -41.5 -1.0 -41.5 -3.05 -41.5 -3.75 -43.25 L-4.0 -44.55 M5.0 -20.55 Q5.0 -23.4 8.0 -23.25 11.0 -23.05 11.0 -20.4 9.25 -17.5 8.0 -17.5 5.95 -17.5 5.25 -19.25 4.9 -20.1 5.0 -20.55 M5.5 -37.05 Q5.5 -39.9 8.5 -39.75 11.5 -39.55 11.5 -36.9 9.75 -34.0 8.5 -34.0 6.45 -34.0 5.75 -35.75 5.4 -36.6 5.5 -37.05 Z" fill="none" stroke="#000000" stroke-linecap="round" stroke-linejoin="round" stroke-opacity="0.0" stroke-width="0.0">
      <animate attributeName="stroke" dur="2s" repeatCount="indefinite" values="#000000;#000001"/>
      <animate attributeName="stroke-width" dur="2s" repeatCount="indefinite" values="0.0;0.0"/>
      <animate attributeName="fill-opacity" dur="2s" repeatCount="indefinite" values="0.0;0.0"/>
      <animate attributeName="d" dur="2s" repeatCount="indefinite" values="M-12.0 -37.55 Q-12.0 -40.2 -9.0 -40.45 -6.0 -40.7 -6.0 -37.4 -6.0 -36.2 -6.8 -35.35 -7.65 -34.5 -9.0 -34.5 -11.05 -34.5 -11.75 -36.25 L-12.0 -37.55 M-4.0 -44.55 Q-4.0 -47.4 -1.0 -47.25 2.0 -47.05 2.0 -44.4 0.2 -41.5 -1.0 -41.5 -3.05 -41.5 -3.75 -43.25 L-4.0 -44.55 M5.0 -20.55 Q5.0 -23.4 8.0 -23.25 11.0 -23.05 11.0 -20.4 9.25 -17.5 8.0 -17.5 5.95 -17.5 5.25 -19.25 4.9 -20.1 5.0 -20.55 M5.5 -37.05 Q5.5 -39.9 8.5 -39.75 11.5 -39.55 11.5 -36.9 9.75 -34.0 8.5 -34.0 6.45 -34.0 5.75 -35.75 5.4 -36.6 5.5 -37.05 Z;M-12.0 -37.55 Q-12.0 -40.2 -9.0 -40.45 -6.0 -40.7 -6.0 -37.4 -6.0 -36.2 -6.8 -35.35 -7.65 -34.5 -9.0 -34.5 -11.05 -34.5 -11.75 -36.25 L-12.0 -37.55 M-4.0 -44.55 Q-4.0 -47.4 -1.0 -47.25 2.0 -47.05 2.0 -44.4 0.2 -41.5 -1.0 -41.5 -3.05 -41.5 -3.75 -43.25 L-4.0 -44.55 M5.0 -20.55 Q5.0 -23.4 8.0 -23.25 11.0 -23.05 11.0 -20.4 9.25 -17.5 8.0 -17.5 5.95 -17.5 5.25 -19.25 4.9 -20.1 5.0 -20.55 M5.5 -37.05 Q5.5 -39.9 8.5 -39.75 11.5 -39.55 11.5 -36.9 9.75 -34.0 8.5 -34.0 6.45 -34.0 5.75 -35.75 5.4 -36.6 5.5 -37.05 Z"/>
    </path>
  </g>
</svg>
