<?xml version="1.0" encoding="UTF-8" standalone="no"?>
<svg xmlns:ffdec="https://www.free-decompiler.com/flash" xmlns:xlink="http://www.w3.org/1999/xlink" ffdec:objectType="morphshape" height="19.9px" width="20.0px" xmlns="http://www.w3.org/2000/svg">
  <g transform="matrix(1.0, 0.0, 0.0, 1.0, 0.0, 0.0)">
    <path d="M0.0 13.55 L0.0 13.65 Q0.0 14.95 0.6 16.15 2.35 19.85 9.1 19.9 L9.2 19.9 Q15.1 19.9 18.0 15.15 L18.1 14.95 Q19.9 11.8 20.0 8.1 L20.0 7.8 Q20.0 4.95 18.9 3.1 18.15 1.85 16.9 1.05 14.15 -0.7 10.15 0.4 L10.05 0.4 Q7.2 1.15 4.95 2.95 L3.25 4.5 3.15 4.6 Q0.1 8.0 0.1 12.2 L0.0 13.55" fill="url(#gradient0)" fill-rule="evenodd" stroke="none">
      <animate attributeName="d" dur="2s" repeatCount="indefinite" values="M0.0 13.55 L0.0 13.65 Q0.0 14.95 0.6 16.15 2.35 19.85 9.1 19.9 L9.2 19.9 Q15.1 19.9 18.0 15.15 L18.1 14.95 Q19.9 11.8 20.0 8.1 L20.0 7.8 Q20.0 4.95 18.9 3.1 18.15 1.85 16.9 1.05 14.15 -0.7 10.15 0.4 L10.05 0.4 Q7.2 1.15 4.95 2.95 L3.25 4.5 3.15 4.6 Q0.1 8.0 0.1 12.2 L0.0 13.55;M0.0 13.55 L0.0 13.55 Q0.0 14.95 0.6 16.15 2.35 19.9 9.2 19.9 L9.3 19.9 Q15.25 19.85 18.1 14.95 L18.2 14.75 Q20.0 11.55 20.0 7.8 L20.0 7.5 Q19.95 4.75 18.8 2.95 18.1 1.8 16.9 1.05 14.1 -0.7 10.05 0.4 L9.95 0.4 Q7.1 1.2 4.9 2.95 L3.35 4.45 3.25 4.5 Q0.1 7.95 0.1 12.2 L0.0 13.55"/>
    </path>
    <path d="M0.0 13.55 L0.1 12.2 Q0.1 8.0 3.15 4.6 L3.25 4.5 4.95 2.95 Q7.2 1.15 10.05 0.4 L10.15 0.4 Q14.15 -0.7 16.9 1.05 18.15 1.85 18.9 3.1 20.0 4.95 20.0 7.8 L20.0 8.1 Q19.9 11.8 18.1 14.95 L18.0 15.15 Q15.1 19.9 9.2 19.9 L9.1 19.9 Q2.35 19.85 0.6 16.15 0.0 14.95 0.0 13.65 L0.0 13.55 Z" fill="none" stroke="#000000" stroke-linecap="round" stroke-linejoin="round" stroke-opacity="0.0" stroke-width="0.0">
      <animate attributeName="stroke" dur="2s" repeatCount="indefinite" values="#000000;#000001"/>
      <animate attributeName="stroke-width" dur="2s" repeatCount="indefinite" values="0.0;0.0"/>
      <animate attributeName="fill-opacity" dur="2s" repeatCount="indefinite" values="0.0;0.0"/>
      <animate attributeName="d" dur="2s" repeatCount="indefinite" values="M0.0 13.55 L0.1 12.2 Q0.1 8.0 3.15 4.6 L3.25 4.5 4.95 2.95 Q7.2 1.15 10.05 0.4 L10.15 0.4 Q14.15 -0.7 16.9 1.05 18.15 1.85 18.9 3.1 20.0 4.95 20.0 7.8 L20.0 8.1 Q19.9 11.8 18.1 14.95 L18.0 15.15 Q15.1 19.9 9.2 19.9 L9.1 19.9 Q2.35 19.85 0.6 16.15 0.0 14.95 0.0 13.65 L0.0 13.55 Z;M0.0 13.55 L0.1 12.2 Q0.1 7.95 3.25 4.5 L3.35 4.45 4.9 2.95 Q7.1 1.2 9.95 0.4 L10.05 0.4 Q14.1 -0.7 16.9 1.05 18.1 1.8 18.8 2.95 19.95 4.75 20.0 7.5 L20.0 7.8 Q20.0 11.55 18.2 14.75 L18.1 14.95 Q15.25 19.85 9.3 19.9 L9.2 19.9 Q2.35 19.9 0.6 16.15 0.0 14.95 0.0 13.55 L0.0 13.55 Z"/>
    </path>
  </g>
  <defs>
    <radialGradient cx="0" cy="0" gradientTransform="matrix(0.0146, 0.0, 0.0, 0.0146, 10.0, 9.95)" gradientUnits="userSpaceOnUse" id="gradient0" r="819.2" spreadMethod="pad">
      <animateTransform additive="replace" attributeName="gradientTransform" dur="2s" from="1" repeatCount="indefinite" to="1" type="scale"/>
      <animateTransform additive="sum" attributeName="gradientTransform" dur="2s" from="10.0 9.95" repeatCount="indefinite" to="10.0 9.95" type="translate"/>
      <animateTransform additive="sum" attributeName="gradientTransform" dur="2s" from="0.0" repeatCount="indefinite" to="0.0" type="rotate"/>
      <animateTransform additive="sum" attributeName="gradientTransform" dur="2s" from="0.0146 0.0146" repeatCount="indefinite" to="0.0146 0.0146" type="scale"/>
      <animateTransform additive="sum" attributeName="gradientTransform" dur="2s" from="0.0" repeatCount="indefinite" to="0.0" type="skewX"/>
      <stop offset="0.0" stop-color="#0000ff">
        <animate attributeName="offset" dur="2s" repeatCount="indefinite" values="0.0;0.0"/>
        <animate attributeName="stop-color" dur="2s" repeatCount="indefinite" values="#0000ff;#ff0001"/>
        <animate attributeName="stop-opacity" dur="2s" repeatCount="indefinite" values="1.0;1.0"/>
      </stop>
      <stop offset="1.0" stop-color="#0000c8">
        <animate attributeName="offset" dur="2s" repeatCount="indefinite" values="1.0;1.0"/>
        <animate attributeName="stop-color" dur="2s" repeatCount="indefinite" values="#0000c8;#c80001"/>
        <animate attributeName="stop-opacity" dur="2s" repeatCount="indefinite" values="1.0;1.0"/>
      </stop>
    </radialGradient>
  </defs>
</svg>
