<?xml version="1.0" encoding="UTF-8" standalone="no"?>
<svg xmlns:ffdec="https://www.free-decompiler.com/flash" xmlns:xlink="http://www.w3.org/1999/xlink" ffdec:objectType="morphshape" height="45.0px" width="45.0px" xmlns="http://www.w3.org/2000/svg">
  <g transform="matrix(1.0, 0.0, 0.0, 1.0, 22.5, 0.0)">
    <path d="M7.5 20.0 L7.5 30.0 12.5 30.0 12.5 20.0 7.5 20.0 M2.5 10.0 L2.5 20.0 7.5 20.0 7.5 10.0 2.5 10.0 M-2.5 0.0 L-2.5 10.0 2.5 10.0 2.5 0.0 -2.5 0.0 M-2.5 25.0 L-2.5 35.0 2.5 35.0 2.5 25.0 -2.5 25.0 M-7.5 10.0 L-7.5 20.0 -2.5 20.0 -2.5 10.0 -7.5 10.0 M-12.5 20.0 L-12.5 30.0 -7.5 30.0 -7.5 20.0 -12.5 20.0 M-22.5 40.0 L-22.5 45.0 22.5 45.0 22.5 40.0 17.5 40.0 17.5 30.0 12.5 30.0 12.5 40.0 -12.5 40.0 -12.5 30.0 -17.5 30.0 -17.5 40.0 -22.5 40.0" fill="#7dbbfa" fill-rule="evenodd" stroke="none">
      <animate attributeName="fill" dur="2s" repeatCount="indefinite" values="#7dbbfa;#6496c9"/>
      <animate attributeName="fill-opacity" dur="2s" repeatCount="indefinite" values="1.0;1.0"/>
      <animate attributeName="d" dur="2s" repeatCount="indefinite" values="M7.5 20.0 L7.5 30.0 12.5 30.0 12.5 20.0 7.5 20.0 M2.5 10.0 L2.5 20.0 7.5 20.0 7.5 10.0 2.5 10.0 M-2.5 0.0 L-2.5 10.0 2.5 10.0 2.5 0.0 -2.5 0.0 M-2.5 25.0 L-2.5 35.0 2.5 35.0 2.5 25.0 -2.5 25.0 M-7.5 10.0 L-7.5 20.0 -2.5 20.0 -2.5 10.0 -7.5 10.0 M-12.5 20.0 L-12.5 30.0 -7.5 30.0 -7.5 20.0 -12.5 20.0 M-22.5 40.0 L-22.5 45.0 22.5 45.0 22.5 40.0 17.5 40.0 17.5 30.0 12.5 30.0 12.5 40.0 -12.5 40.0 -12.5 30.0 -17.5 30.0 -17.5 40.0 -22.5 40.0;M7.5 20.0 L7.5 30.0 12.5 30.0 12.5 20.0 7.5 20.0 M2.5 10.0 L2.5 20.0 7.5 20.0 7.5 10.0 2.5 10.0 M-2.5 0.0 L-2.5 10.0 2.5 10.0 2.5 0.0 -2.5 0.0 M-2.5 25.0 L-2.5 35.0 2.5 35.0 2.5 25.0 -2.5 25.0 M-7.5 10.0 L-7.5 20.0 -2.5 20.0 -2.5 10.0 -7.5 10.0 M-12.5 20.0 L-12.5 30.0 -7.5 30.0 -7.5 20.0 -12.5 20.0 M-22.5 40.0 L-22.5 45.0 22.5 45.0 22.5 40.0 17.5 40.0 17.5 30.0 12.5 30.0 12.5 40.0 -12.5 40.0 -12.5 30.0 -17.5 30.0 -17.5 40.0 -22.5 40.0"/>
    </path>
    <path d="M-22.5 40.0 L-17.5 40.0 -17.5 30.0 -12.5 30.0 -12.5 40.0 12.5 40.0 12.5 30.0 17.5 30.0 17.5 40.0 22.5 40.0 22.5 45.0 -22.5 45.0 -22.5 40.0 M-12.5 20.0 L-7.5 20.0 -7.5 30.0 -12.5 30.0 -12.5 20.0 M-7.5 10.0 L-2.5 10.0 -2.5 20.0 -7.5 20.0 -7.5 10.0 M-2.5 25.0 L2.5 25.0 2.5 35.0 -2.5 35.0 -2.5 25.0 M-2.5 0.0 L2.5 0.0 2.5 10.0 -2.5 10.0 -2.5 0.0 M2.5 10.0 L7.5 10.0 7.5 20.0 2.5 20.0 2.5 10.0 M7.5 20.0 L12.5 20.0 12.5 30.0 7.5 30.0 7.5 20.0 Z" fill="none" stroke="#000000" stroke-linecap="round" stroke-linejoin="round" stroke-opacity="0.0" stroke-width="0.0">
      <animate attributeName="stroke" dur="2s" repeatCount="indefinite" values="#000000;#000001"/>
      <animate attributeName="stroke-width" dur="2s" repeatCount="indefinite" values="0.0;0.0"/>
      <animate attributeName="fill-opacity" dur="2s" repeatCount="indefinite" values="0.0;0.0"/>
      <animate attributeName="d" dur="2s" repeatCount="indefinite" values="M-22.5 40.0 L-17.5 40.0 -17.5 30.0 -12.5 30.0 -12.5 40.0 12.5 40.0 12.5 30.0 17.5 30.0 17.5 40.0 22.5 40.0 22.5 45.0 -22.5 45.0 -22.5 40.0 M-12.5 20.0 L-7.5 20.0 -7.5 30.0 -12.5 30.0 -12.5 20.0 M-7.5 10.0 L-2.5 10.0 -2.5 20.0 -7.5 20.0 -7.5 10.0 M-2.5 25.0 L2.5 25.0 2.5 35.0 -2.5 35.0 -2.5 25.0 M-2.5 0.0 L2.5 0.0 2.5 10.0 -2.5 10.0 -2.5 0.0 M2.5 10.0 L7.5 10.0 7.5 20.0 2.5 20.0 2.5 10.0 M7.5 20.0 L12.5 20.0 12.5 30.0 7.5 30.0 7.5 20.0 Z;M-22.5 40.0 L-17.5 40.0 -17.5 30.0 -12.5 30.0 -12.5 40.0 12.5 40.0 12.5 30.0 17.5 30.0 17.5 40.0 22.5 40.0 22.5 45.0 -22.5 45.0 -22.5 40.0 M-12.5 20.0 L-7.5 20.0 -7.5 30.0 -12.5 30.0 -12.5 20.0 M-7.5 10.0 L-2.5 10.0 -2.5 20.0 -7.5 20.0 -7.5 10.0 M-2.5 25.0 L2.5 25.0 2.5 35.0 -2.5 35.0 -2.5 25.0 M-2.5 0.0 L2.5 0.0 2.5 10.0 -2.5 10.0 -2.5 0.0 M2.5 10.0 L7.5 10.0 7.5 20.0 2.5 20.0 2.5 10.0 M7.5 20.0 L12.5 20.0 12.5 30.0 7.5 30.0 7.5 20.0 Z"/>
    </path>
  </g>
</svg>
