<?xml version="1.0" encoding="UTF-8" standalone="no"?>
<svg xmlns:ffdec="https://www.free-decompiler.com/flash" xmlns:xlink="http://www.w3.org/1999/xlink" ffdec:objectType="morphshape" height="85.0px" width="45.0px" xmlns="http://www.w3.org/2000/svg">
  <g transform="matrix(1.0, 0.0, 0.0, 1.0, 22.5, 55.0)">
    <path d="M-12.5 -35.0 L-12.5 -25.0 -7.5 -25.0 -7.5 -35.0 -12.5 -35.0 M-7.5 -45.0 L-7.5 -35.0 -2.5 -35.0 -2.5 -45.0 -7.5 -45.0 M-2.5 -55.0 L-2.5 -45.0 2.5 -45.0 2.5 -55.0 -2.5 -55.0 M-22.5 -15.0 L-22.5 -10.0 22.5 -10.0 22.5 -15.0 17.5 -15.0 17.5 -25.0 12.5 -25.0 12.5 -15.0 -12.5 -15.0 -12.5 -25.0 -17.5 -25.0 -17.5 -15.0 -22.5 -15.0 M7.5 -35.0 L7.5 -25.0 12.5 -25.0 12.5 -35.0 7.5 -35.0 M-2.55 -30.0 L-2.55 -20.0 2.45 -20.0 2.45 -30.0 -2.55 -30.0 M2.5 -45.0 L2.5 -35.0 7.5 -35.0 7.5 -45.0 2.5 -45.0" fill="#9664c8" fill-rule="evenodd" stroke="none">
      <animate attributeName="fill" dur="2s" repeatCount="indefinite" values="#9664c8;#6496c9"/>
      <animate attributeName="fill-opacity" dur="2s" repeatCount="indefinite" values="1.0;1.0"/>
      <animate attributeName="d" dur="2s" repeatCount="indefinite" values="M-12.5 -35.0 L-12.5 -25.0 -7.5 -25.0 -7.5 -35.0 -12.5 -35.0 M-7.5 -45.0 L-7.5 -35.0 -2.5 -35.0 -2.5 -45.0 -7.5 -45.0 M-2.5 -55.0 L-2.5 -45.0 2.5 -45.0 2.5 -55.0 -2.5 -55.0 M-22.5 -15.0 L-22.5 -10.0 22.5 -10.0 22.5 -15.0 17.5 -15.0 17.5 -25.0 12.5 -25.0 12.5 -15.0 -12.5 -15.0 -12.5 -25.0 -17.5 -25.0 -17.5 -15.0 -22.5 -15.0 M7.5 -35.0 L7.5 -25.0 12.5 -25.0 12.5 -35.0 7.5 -35.0 M-2.55 -30.0 L-2.55 -20.0 2.45 -20.0 2.45 -30.0 -2.55 -30.0 M2.5 -45.0 L2.5 -35.0 7.5 -35.0 7.5 -45.0 2.5 -45.0;M-12.5 -35.0 L-12.5 -25.0 -7.5 -25.0 -7.5 -35.0 -12.5 -35.0 M-7.5 -45.0 L-7.5 -35.0 -2.5 -35.0 -2.5 -45.0 -7.5 -45.0 M-2.5 -55.0 L-2.5 -45.0 2.5 -45.0 2.5 -55.0 -2.5 -55.0 M-22.5 -15.0 L-22.5 -10.0 22.5 -10.0 22.5 -15.0 17.5 -15.0 17.5 -25.0 12.5 -25.0 12.5 -15.0 -12.5 -15.0 -12.5 -25.0 -17.5 -25.0 -17.5 -15.0 -22.5 -15.0 M7.5 -35.0 L7.5 -25.0 12.5 -25.0 12.5 -35.0 7.5 -35.0 M-2.5 -30.0 L-2.5 -20.0 2.5 -20.0 2.5 -30.0 -2.5 -30.0 M2.5 -45.0 L2.5 -35.0 7.5 -35.0 7.5 -45.0 2.5 -45.0"/>
    </path>
    <path d="M-7.5 0.0 L-7.5 5.0 -2.5 5.0 -2.5 30.0 2.5 30.0 2.5 5.0 7.5 5.0 7.5 0.0 -7.5 0.0" fill="#704b96" fill-rule="evenodd" stroke="none">
      <animate attributeName="fill" dur="2s" repeatCount="indefinite" values="#704b96;#4b7097"/>
      <animate attributeName="fill-opacity" dur="2s" repeatCount="indefinite" values="1.0;1.0"/>
      <animate attributeName="d" dur="2s" repeatCount="indefinite" values="M-7.5 0.0 L-7.5 5.0 -2.5 5.0 -2.5 30.0 2.5 30.0 2.5 5.0 7.5 5.0 7.5 0.0 -7.5 0.0;M-7.5 0.0 L-7.5 5.0 -2.5 5.0 -2.5 30.0 2.5 30.0 2.5 5.0 7.5 5.0 7.5 0.0 -7.5 0.0"/>
    </path>
    <path d="M2.5 -45.0 L7.5 -45.0 7.5 -35.0 2.5 -35.0 2.5 -45.0 M-2.55 -30.0 L2.45 -30.0 2.45 -20.0 -2.55 -20.0 -2.55 -30.0 M7.5 -35.0 L12.5 -35.0 12.5 -25.0 7.5 -25.0 7.5 -35.0 M-22.5 -15.0 L-17.5 -15.0 -17.5 -25.0 -12.5 -25.0 -12.5 -15.0 12.5 -15.0 12.5 -25.0 17.5 -25.0 17.5 -15.0 22.5 -15.0 22.5 -10.0 -22.5 -10.0 -22.5 -15.0 M-2.5 -55.0 L2.5 -55.0 2.5 -45.0 -2.5 -45.0 -2.5 -55.0 M-7.5 -45.0 L-2.5 -45.0 -2.5 -35.0 -7.5 -35.0 -7.5 -45.0 M-12.5 -35.0 L-7.5 -35.0 -7.5 -25.0 -12.5 -25.0 -12.5 -35.0 M-7.5 0.0 L7.5 0.0 7.5 5.0 2.5 5.0 2.5 30.0 -2.5 30.0 -2.5 5.0 -7.5 5.0 -7.5 0.0 Z" fill="none" stroke="#000000" stroke-linecap="round" stroke-linejoin="round" stroke-opacity="0.0" stroke-width="0.0">
      <animate attributeName="stroke" dur="2s" repeatCount="indefinite" values="#000000;#000001"/>
      <animate attributeName="stroke-width" dur="2s" repeatCount="indefinite" values="0.0;0.0"/>
      <animate attributeName="fill-opacity" dur="2s" repeatCount="indefinite" values="0.0;0.0"/>
      <animate attributeName="d" dur="2s" repeatCount="indefinite" values="M2.5 -45.0 L7.5 -45.0 7.5 -35.0 2.5 -35.0 2.5 -45.0 M-2.55 -30.0 L2.45 -30.0 2.45 -20.0 -2.55 -20.0 -2.55 -30.0 M7.5 -35.0 L12.5 -35.0 12.5 -25.0 7.5 -25.0 7.5 -35.0 M-22.5 -15.0 L-17.5 -15.0 -17.5 -25.0 -12.5 -25.0 -12.5 -15.0 12.5 -15.0 12.5 -25.0 17.5 -25.0 17.5 -15.0 22.5 -15.0 22.5 -10.0 -22.5 -10.0 -22.5 -15.0 M-2.5 -55.0 L2.5 -55.0 2.5 -45.0 -2.5 -45.0 -2.5 -55.0 M-7.5 -45.0 L-2.5 -45.0 -2.5 -35.0 -7.5 -35.0 -7.5 -45.0 M-12.5 -35.0 L-7.5 -35.0 -7.5 -25.0 -12.5 -25.0 -12.5 -35.0 M-7.5 0.0 L7.5 0.0 7.5 5.0 2.5 5.0 2.5 30.0 -2.5 30.0 -2.5 5.0 -7.5 5.0 -7.5 0.0 Z;M2.5 -45.0 L7.5 -45.0 7.5 -35.0 2.5 -35.0 2.5 -45.0 M-2.5 -30.0 L2.5 -30.0 2.5 -20.0 -2.5 -20.0 -2.5 -30.0 M7.5 -35.0 L12.5 -35.0 12.5 -25.0 7.5 -25.0 7.5 -35.0 M-22.5 -15.0 L-17.5 -15.0 -17.5 -25.0 -12.5 -25.0 -12.5 -15.0 12.5 -15.0 12.5 -25.0 17.5 -25.0 17.5 -15.0 22.5 -15.0 22.5 -10.0 -22.5 -10.0 -22.5 -15.0 M-2.5 -55.0 L2.5 -55.0 2.5 -45.0 -2.5 -45.0 -2.5 -55.0 M-7.5 -45.0 L-2.5 -45.0 -2.5 -35.0 -7.5 -35.0 -7.5 -45.0 M-12.5 -35.0 L-7.5 -35.0 -7.5 -25.0 -12.5 -25.0 -12.5 -35.0 M-7.5 0.0 L7.5 0.0 7.5 5.0 2.5 5.0 2.5 30.0 -2.5 30.0 -2.5 5.0 -7.5 5.0 -7.5 0.0 Z"/>
    </path>
  </g>
</svg>
