<?xml version="1.0" encoding="UTF-8" standalone="no"?>
<svg xmlns:ffdec="https://www.free-decompiler.com/flash" xmlns:xlink="http://www.w3.org/1999/xlink" ffdec:objectType="morphshape" height="112.0px" width="112.0px" xmlns="http://www.w3.org/2000/svg">
  <g transform="matrix(1.0, 0.0, 0.0, 1.0, 0.0, 0.0)">
    <path d="M0.0 96.0 L0.0 112.0 112.0 112.0 112.0 96.0 96.0 96.0 96.0 64.0 80.0 64.0 80.0 32.0 64.0 32.0 64.0 0.0 48.0 0.0 48.0 32.0 32.0 32.0 32.0 64.0 16.0 64.0 16.0 96.0 0.0 96.0" fill="#cccccc" fill-opacity="0.0" fill-rule="evenodd" stroke="none">
      <animate attributeName="fill" dur="2s" repeatCount="indefinite" values="#cccccc;#cccccd"/>
      <animate attributeName="fill-opacity" dur="2s" repeatCount="indefinite" values="0.0;1.0"/>
      <animate attributeName="d" dur="2s" repeatCount="indefinite" values="M0.0 96.0 L0.0 112.0 112.0 112.0 112.0 96.0 96.0 96.0 96.0 64.0 80.0 64.0 80.0 32.0 64.0 32.0 64.0 0.0 48.0 0.0 48.0 32.0 32.0 32.0 32.0 64.0 16.0 64.0 16.0 96.0 0.0 96.0;M0.0 96.0 L0.0 112.0 112.0 112.0 112.0 96.0 96.0 96.0 96.0 64.0 80.0 64.0 80.0 32.0 64.0 32.0 64.0 0.0 48.0 0.0 48.0 32.0 32.0 32.0 32.0 64.0 16.0 64.0 16.0 96.0 0.0 96.0"/>
    </path>
    <path d="M0.0 96.0 L16.0 96.0 16.0 64.0 32.0 64.0 32.0 32.0 48.0 32.0 48.0 0.0 64.0 0.0 64.0 32.0 80.0 32.0 80.0 64.0 96.0 64.0 96.0 96.0 112.0 96.0 112.0 112.0 0.0 112.0 0.0 96.0 Z" fill="none" stroke="#000000" stroke-linecap="round" stroke-linejoin="round" stroke-opacity="0.0" stroke-width="0.0">
      <animate attributeName="stroke" dur="2s" repeatCount="indefinite" values="#000000;#000001"/>
      <animate attributeName="stroke-width" dur="2s" repeatCount="indefinite" values="0.0;0.0"/>
      <animate attributeName="fill-opacity" dur="2s" repeatCount="indefinite" values="0.0;0.0"/>
      <animate attributeName="d" dur="2s" repeatCount="indefinite" values="M0.0 96.0 L16.0 96.0 16.0 64.0 32.0 64.0 32.0 32.0 48.0 32.0 48.0 0.0 64.0 0.0 64.0 32.0 80.0 32.0 80.0 64.0 96.0 64.0 96.0 96.0 112.0 96.0 112.0 112.0 0.0 112.0 0.0 96.0 Z;M0.0 96.0 L16.0 96.0 16.0 64.0 32.0 64.0 32.0 32.0 48.0 32.0 48.0 0.0 64.0 0.0 64.0 32.0 80.0 32.0 80.0 64.0 96.0 64.0 96.0 96.0 112.0 96.0 112.0 112.0 0.0 112.0 0.0 96.0 Z"/>
    </path>
  </g>
</svg>
