<?xml version="1.0" encoding="UTF-8" standalone="no"?>
<svg xmlns:ffdec="https://www.free-decompiler.com/flash" xmlns:xlink="http://www.w3.org/1999/xlink" ffdec:objectType="morphshape" height="300.0px" width="220.0px" xmlns="http://www.w3.org/2000/svg">
  <g transform="matrix(1.0, 0.0, 0.0, 1.0, 0.0, 0.0)">
    <path d="M119.9 60.0 L120.1 80.0 120.1 60.0 119.9 60.0 M100.0 80.0 L100.1 100.0 100.1 80.0 100.0 80.0 M80.0 100.0 L80.1 120.0 80.1 100.0 80.0 100.0 M80.0 60.0 L80.1 80.0 80.1 60.0 80.0 60.0 M0.0 200.0 L0.0 220.0 40.0 220.0 40.0 200.0 80.0 200.0 80.0 220.0 60.0 220.0 60.0 240.0 40.0 240.0 40.0 300.0 80.0 300.0 80.0 280.0 100.0 280.0 100.0 260.0 120.0 260.0 120.0 280.0 140.0 280.0 140.0 300.0 180.0 300.0 180.0 240.0 160.0 240.0 160.0 220.0 140.0 220.0 140.0 200.0 180.0 200.0 180.0 220.0 220.0 220.0 220.0 200.0 200.0 200.0 200.0 180.0 160.0 180.0 160.0 160.0 180.1 160.0 180.1 140.0 180.0 140.0 180.0 80.0 200.0 80.0 200.0 60.0 200.1 60.0 200.1 20.0 180.1 20.0 180.1 60.0 160.0 60.0 160.0 40.0 120.0 40.0 120.0 0.0 100.1 0.0 100.1 40.0 60.1 40.0 60.1 60.0 40.1 60.0 40.1 20.0 20.0 20.0 20.0 80.0 40.1 80.0 40.1 140.0 40.0 140.0 40.0 160.0 60.1 160.0 60.1 180.0 20.0 180.0 20.0 200.0 0.0 200.0" fill="#ffffff" fill-opacity="0.0" fill-rule="evenodd" stroke="none">
      <animate attributeName="fill" dur="2s" repeatCount="indefinite" values="#ffffff;#ffffff"/>
      <animate attributeName="fill-opacity" dur="2s" repeatCount="indefinite" values="0.0;1.0"/>
      <animate attributeName="d" dur="2s" repeatCount="indefinite" values="M119.9 60.0 L120.1 80.0 120.1 60.0 119.9 60.0 M100.0 80.0 L100.1 100.0 100.1 80.0 100.0 80.0 M80.0 100.0 L80.1 120.0 80.1 100.0 80.0 100.0 M80.0 60.0 L80.1 80.0 80.1 60.0 80.0 60.0 M0.0 200.0 L0.0 220.0 40.0 220.0 40.0 200.0 80.0 200.0 80.0 220.0 60.0 220.0 60.0 240.0 40.0 240.0 40.0 300.0 80.0 300.0 80.0 280.0 100.0 280.0 100.0 260.0 120.0 260.0 120.0 280.0 140.0 280.0 140.0 300.0 180.0 300.0 180.0 240.0 160.0 240.0 160.0 220.0 140.0 220.0 140.0 200.0 180.0 200.0 180.0 220.0 220.0 220.0 220.0 200.0 200.0 200.0 200.0 180.0 160.0 180.0 160.0 160.0 180.1 160.0 180.1 140.0 180.0 140.0 180.0 80.0 200.0 80.0 200.0 60.0 200.1 60.0 200.1 20.0 180.1 20.0 180.1 60.0 160.0 60.0 160.0 40.0 120.0 40.0 120.0 0.0 100.1 0.0 100.1 40.0 60.1 40.0 60.1 60.0 40.1 60.0 40.1 20.0 20.0 20.0 20.0 80.0 40.1 80.0 40.1 140.0 40.0 140.0 40.0 160.0 60.1 160.0 60.1 180.0 20.0 180.0 20.0 200.0 0.0 200.0;M119.9 60.0 L120.1 80.0 120.1 60.0 119.9 60.0 M100.0 80.0 L100.1 100.0 100.1 80.0 100.0 80.0 M80.0 100.0 L80.1 120.0 80.1 100.0 80.0 100.0 M80.0 60.0 L80.1 80.0 80.1 60.0 80.0 60.0 M0.0 200.0 L0.0 220.0 40.0 220.0 40.0 200.0 80.0 200.0 80.0 220.0 60.0 220.0 60.0 240.0 40.0 240.0 40.0 300.0 80.0 300.0 80.0 280.0 100.0 280.0 100.0 260.0 120.0 260.0 120.0 280.0 140.0 280.0 140.0 300.0 180.0 300.0 180.0 240.0 160.0 240.0 160.0 220.0 140.0 220.0 140.0 200.0 180.0 200.0 180.0 220.0 220.0 220.0 220.0 200.0 200.0 200.0 200.0 180.0 160.0 180.0 160.0 160.0 180.1 160.0 180.1 140.0 180.0 140.0 180.0 80.0 200.0 80.0 200.0 60.0 200.1 60.0 200.1 20.0 180.1 20.0 180.1 60.0 160.0 60.0 160.0 40.0 120.0 40.0 120.0 0.0 100.1 0.0 100.1 40.0 60.1 40.0 60.1 60.0 40.1 60.0 40.1 20.0 20.0 20.0 20.0 80.0 40.1 80.0 40.1 140.0 40.0 140.0 40.0 160.0 60.1 160.0 60.1 180.0 20.0 180.0 20.0 200.0 0.0 200.0"/>
    </path>
    <path d="M0.0 200.0 L20.0 200.0 20.0 180.0 60.1 180.0 60.1 160.0 40.0 160.0 40.0 140.0 40.1 140.0 40.1 80.0 20.0 80.0 20.0 20.0 40.1 20.0 40.1 60.0 60.1 60.0 60.1 40.0 100.1 40.0 100.1 0.0 120.0 0.0 120.0 40.0 160.0 40.0 160.0 60.0 180.1 60.0 180.1 20.0 200.1 20.0 200.1 60.0 200.0 60.0 200.0 80.0 180.0 80.0 180.0 140.0 180.1 140.0 180.1 160.0 160.0 160.0 160.0 180.0 200.0 180.0 200.0 200.0 220.0 200.0 220.0 220.0 180.0 220.0 180.0 200.0 140.0 200.0 140.0 220.0 160.0 220.0 160.0 240.0 180.0 240.0 180.0 300.0 140.0 300.0 140.0 280.0 120.0 280.0 120.0 260.0 100.0 260.0 100.0 280.0 80.0 280.0 80.0 300.0 40.0 300.0 40.0 240.0 60.0 240.0 60.0 220.0 80.0 220.0 80.0 200.0 40.0 200.0 40.0 220.0 0.0 220.0 0.0 200.0 M80.0 60.0 L80.1 60.0 80.1 80.0 80.0 60.0 M80.0 100.0 L80.1 100.0 80.1 120.0 80.0 100.0 M100.0 80.0 L100.1 80.0 100.1 100.0 100.0 80.0 M119.9 60.0 L120.1 60.0 120.1 80.0 119.9 60.0 Z" fill="none" stroke="#000000" stroke-linecap="round" stroke-linejoin="round" stroke-opacity="0.0" stroke-width="0.0">
      <animate attributeName="stroke" dur="2s" repeatCount="indefinite" values="#000000;#000001"/>
      <animate attributeName="stroke-width" dur="2s" repeatCount="indefinite" values="0.0;0.0"/>
      <animate attributeName="fill-opacity" dur="2s" repeatCount="indefinite" values="0.0;0.0"/>
      <animate attributeName="d" dur="2s" repeatCount="indefinite" values="M0.0 200.0 L20.0 200.0 20.0 180.0 60.1 180.0 60.1 160.0 40.0 160.0 40.0 140.0 40.1 140.0 40.1 80.0 20.0 80.0 20.0 20.0 40.1 20.0 40.1 60.0 60.1 60.0 60.1 40.0 100.1 40.0 100.1 0.0 120.0 0.0 120.0 40.0 160.0 40.0 160.0 60.0 180.1 60.0 180.1 20.0 200.1 20.0 200.1 60.0 200.0 60.0 200.0 80.0 180.0 80.0 180.0 140.0 180.1 140.0 180.1 160.0 160.0 160.0 160.0 180.0 200.0 180.0 200.0 200.0 220.0 200.0 220.0 220.0 180.0 220.0 180.0 200.0 140.0 200.0 140.0 220.0 160.0 220.0 160.0 240.0 180.0 240.0 180.0 300.0 140.0 300.0 140.0 280.0 120.0 280.0 120.0 260.0 100.0 260.0 100.0 280.0 80.0 280.0 80.0 300.0 40.0 300.0 40.0 240.0 60.0 240.0 60.0 220.0 80.0 220.0 80.0 200.0 40.0 200.0 40.0 220.0 0.0 220.0 0.0 200.0 M80.0 60.0 L80.1 60.0 80.1 80.0 80.0 60.0 M80.0 100.0 L80.1 100.0 80.1 120.0 80.0 100.0 M100.0 80.0 L100.1 80.0 100.1 100.0 100.0 80.0 M119.9 60.0 L120.1 60.0 120.1 80.0 119.9 60.0 Z;M0.0 200.0 L20.0 200.0 20.0 180.0 60.1 180.0 60.1 160.0 40.0 160.0 40.0 140.0 40.1 140.0 40.1 80.0 20.0 80.0 20.0 20.0 40.1 20.0 40.1 60.0 60.1 60.0 60.1 40.0 100.1 40.0 100.1 0.0 120.0 0.0 120.0 40.0 160.0 40.0 160.0 60.0 180.1 60.0 180.1 20.0 200.1 20.0 200.1 60.0 200.0 60.0 200.0 80.0 180.0 80.0 180.0 140.0 180.1 140.0 180.1 160.0 160.0 160.0 160.0 180.0 200.0 180.0 200.0 200.0 220.0 200.0 220.0 220.0 180.0 220.0 180.0 200.0 140.0 200.0 140.0 220.0 160.0 220.0 160.0 240.0 180.0 240.0 180.0 300.0 140.0 300.0 140.0 280.0 120.0 280.0 120.0 260.0 100.0 260.0 100.0 280.0 80.0 280.0 80.0 300.0 40.0 300.0 40.0 240.0 60.0 240.0 60.0 220.0 80.0 220.0 80.0 200.0 40.0 200.0 40.0 220.0 0.0 220.0 0.0 200.0 M80.0 60.0 L80.1 60.0 80.1 80.0 80.0 60.0 M80.0 100.0 L80.1 100.0 80.1 120.0 80.0 100.0 M100.0 80.0 L100.1 80.0 100.1 100.0 100.0 80.0 M119.9 60.0 L120.1 60.0 120.1 80.0 119.9 60.0 Z"/>
    </path>
  </g>
</svg>
