<?xml version="1.0" encoding="UTF-8" standalone="no"?>
<svg xmlns:ffdec="https://www.free-decompiler.com/flash" xmlns:xlink="http://www.w3.org/1999/xlink" ffdec:objectType="morphshape" height="1126.8px" width="410.1px" xmlns="http://www.w3.org/2000/svg">
  <g transform="matrix(1.0, 0.0, 0.0, 1.0, 5.0, 1121.8)">
    <path d="M0.0 -400.0 L0.0 0.0 400.1 0.0 400.1 -400.0 0.0 -400.0 M75.0 -200.0 Q75.0 -190.0 83.0 -183.0 90.0 -175.0 100.0 -175.0 110.0 -175.0 118.0 -183.0 125.0 -190.0 125.0 -200.0 125.0 -210.0 118.0 -218.0 110.0 -225.0 100.0 -225.0 90.0 -225.0 83.0 -218.0 75.0 -210.0 75.0 -200.0 M100.0 -100.0 L200.05 -100.0 100.0 -100.0 M175.05 -200.0 Q175.05 -190.0 183.05 -183.0 190.05 -175.0 200.05 -175.0 210.05 -175.0 218.05 -183.0 225.05 -190.0 225.05 -200.0 225.05 -210.0 218.05 -218.0 210.05 -225.0 200.05 -225.0 190.05 -225.0 183.05 -218.0 175.05 -210.0 175.05 -200.0" fill="#ffffff" fill-rule="evenodd" stroke="none">
      <animate attributeName="fill" dur="2s" repeatCount="indefinite" values="#ffffff;#ffffff"/>
      <animate attributeName="fill-opacity" dur="2s" repeatCount="indefinite" values="1.0;1.0"/>
      <animate attributeName="d" dur="2s" repeatCount="indefinite" values="M0.0 -400.0 L0.0 0.0 400.1 0.0 400.1 -400.0 0.0 -400.0 M75.0 -200.0 Q75.0 -190.0 83.0 -183.0 90.0 -175.0 100.0 -175.0 110.0 -175.0 118.0 -183.0 125.0 -190.0 125.0 -200.0 125.0 -210.0 118.0 -218.0 110.0 -225.0 100.0 -225.0 90.0 -225.0 83.0 -218.0 75.0 -210.0 75.0 -200.0 M100.0 -100.0 L200.05 -100.0 100.0 -100.0 M175.05 -200.0 Q175.05 -190.0 183.05 -183.0 190.05 -175.0 200.05 -175.0 210.05 -175.0 218.05 -183.0 225.05 -190.0 225.05 -200.0 225.05 -210.0 218.05 -218.0 210.05 -225.0 200.05 -225.0 190.05 -225.0 183.05 -218.0 175.05 -210.0 175.05 -200.0;M0.0 -1116.8 L0.0 -716.8 400.1 -716.8 400.1 -1116.8 0.0 -1116.8 M75.0 -916.8 Q75.0 -906.8 83.0 -899.8 90.0 -891.8 100.0 -891.8 110.0 -891.8 118.0 -899.8 125.0 -906.8 125.0 -916.8 125.0 -926.8 118.0 -934.8 110.0 -941.8 100.0 -941.8 90.0 -941.8 83.0 -934.8 75.0 -926.8 75.0 -916.8 M100.0 -816.8 L200.05 -816.8 100.0 -816.8 M175.05 -916.8 Q175.05 -906.8 183.05 -899.8 190.05 -891.8 200.05 -891.8 210.05 -891.8 218.05 -899.8 225.05 -906.8 225.05 -916.8 225.05 -926.8 218.05 -934.8 210.05 -941.8 200.05 -941.8 190.05 -941.8 183.05 -934.8 175.05 -926.8 175.05 -916.8"/>
    </path>
    <path d="M75.0 -200.0 Q75.0 -190.0 83.0 -183.0 90.0 -175.0 100.0 -175.0 110.0 -175.0 118.0 -183.0 125.0 -190.0 125.0 -200.0 125.0 -210.0 118.0 -218.0 110.0 -225.0 100.0 -225.0 90.0 -225.0 83.0 -218.0 75.0 -210.0 75.0 -200.0 M175.05 -200.0 Q175.05 -190.0 183.05 -183.0 190.05 -175.0 200.05 -175.0 210.05 -175.0 218.05 -183.0 225.05 -190.0 225.05 -200.0 225.05 -210.0 218.05 -218.0 210.05 -225.0 200.05 -225.0 190.05 -225.0 183.05 -218.0 175.05 -210.0 175.05 -200.0" fill="#000000" fill-rule="evenodd" stroke="none">
      <animate attributeName="fill" dur="2s" repeatCount="indefinite" values="#000000;#000001"/>
      <animate attributeName="fill-opacity" dur="2s" repeatCount="indefinite" values="1.0;1.0"/>
      <animate attributeName="d" dur="2s" repeatCount="indefinite" values="M75.0 -200.0 Q75.0 -190.0 83.0 -183.0 90.0 -175.0 100.0 -175.0 110.0 -175.0 118.0 -183.0 125.0 -190.0 125.0 -200.0 125.0 -210.0 118.0 -218.0 110.0 -225.0 100.0 -225.0 90.0 -225.0 83.0 -218.0 75.0 -210.0 75.0 -200.0 M175.05 -200.0 Q175.05 -190.0 183.05 -183.0 190.05 -175.0 200.05 -175.0 210.05 -175.0 218.05 -183.0 225.05 -190.0 225.05 -200.0 225.05 -210.0 218.05 -218.0 210.05 -225.0 200.05 -225.0 190.05 -225.0 183.05 -218.0 175.05 -210.0 175.05 -200.0;M75.0 -916.8 Q75.0 -906.8 83.0 -899.8 90.0 -891.8 100.0 -891.8 110.0 -891.8 118.0 -899.8 125.0 -906.8 125.0 -916.8 125.0 -926.8 118.0 -934.8 110.0 -941.8 100.0 -941.8 90.0 -941.8 83.0 -934.8 75.0 -926.8 75.0 -916.8 M175.05 -916.8 Q175.05 -906.8 183.05 -899.8 190.05 -891.8 200.05 -891.8 210.05 -891.8 218.05 -899.8 225.05 -906.8 225.05 -916.8 225.05 -926.8 218.05 -934.8 210.05 -941.8 200.05 -941.8 190.05 -941.8 183.05 -934.8 175.05 -926.8 175.05 -916.8"/>
    </path>
    <path d="M0.0 -400.0 L400.1 -400.0 400.1 0.0 0.0 0.0 0.0 -400.0 400.1 -400.0 400.1 0.0 0.0 0.0 0.0 -400.0" fill="none" stroke="#000000" stroke-linecap="round" stroke-linejoin="round" stroke-width="10.0">
      <animate attributeName="stroke" dur="2s" repeatCount="indefinite" values="#000000;#000001"/>
      <animate attributeName="stroke-width" dur="2s" repeatCount="indefinite" values="10.0;10.0"/>
      <animate attributeName="fill-opacity" dur="2s" repeatCount="indefinite" values="1.0;1.0"/>
      <animate attributeName="d" dur="2s" repeatCount="indefinite" values="M0.0 -400.0 L400.1 -400.0 400.1 0.0 0.0 0.0 0.0 -400.0 400.1 -400.0 400.1 0.0 0.0 0.0 0.0 -400.0;M0.0 -1116.8 L400.1 -1116.8 400.1 -716.8 0.0 -716.8 0.0 -1116.8 400.1 -1116.8 400.1 -716.8 0.0 -716.8 0.0 -1116.8"/>
    </path>
    <path d="M75.0 -200.0 Q75.0 -210.0 83.0 -218.0 90.0 -225.0 100.0 -225.0 110.0 -225.0 118.0 -218.0 125.0 -210.0 125.0 -200.0 125.0 -190.0 118.0 -183.0 110.0 -175.0 100.0 -175.0 90.0 -175.0 83.0 -183.0 75.0 -190.0 75.0 -200.0 75.0 -210.0 83.0 -218.0 90.0 -225.0 100.0 -225.0 110.0 -225.0 118.0 -218.0 125.0 -210.0 125.0 -200.0 125.0 -190.0 118.0 -183.0 110.0 -175.0 100.0 -175.0 90.0 -175.0 83.0 -183.0 75.0 -190.0 75.0 -200.0 M175.05 -200.0 Q175.05 -210.0 183.05 -218.0 190.05 -225.0 200.05 -225.0 210.05 -225.0 218.05 -218.0 225.05 -210.0 225.05 -200.0 225.05 -190.0 218.05 -183.0 210.05 -175.0 200.05 -175.0 190.05 -175.0 183.05 -183.0 175.05 -190.0 175.05 -200.0 175.05 -210.0 183.05 -218.0 190.05 -225.0 200.05 -225.0 210.05 -225.0 218.05 -218.0 225.05 -210.0 225.05 -200.0 225.05 -190.0 218.05 -183.0 210.05 -175.0 200.05 -175.0 190.05 -175.0 183.05 -183.0 175.05 -190.0 175.05 -200.0" fill="none" stroke="#000000" stroke-linecap="round" stroke-linejoin="round" stroke-opacity="0.0" stroke-width="0.0">
      <animate attributeName="stroke" dur="2s" repeatCount="indefinite" values="#000000;#000001"/>
      <animate attributeName="stroke-width" dur="2s" repeatCount="indefinite" values="0.0;0.0"/>
      <animate attributeName="fill-opacity" dur="2s" repeatCount="indefinite" values="0.0;0.0"/>
      <animate attributeName="d" dur="2s" repeatCount="indefinite" values="M75.0 -200.0 Q75.0 -210.0 83.0 -218.0 90.0 -225.0 100.0 -225.0 110.0 -225.0 118.0 -218.0 125.0 -210.0 125.0 -200.0 125.0 -190.0 118.0 -183.0 110.0 -175.0 100.0 -175.0 90.0 -175.0 83.0 -183.0 75.0 -190.0 75.0 -200.0 75.0 -210.0 83.0 -218.0 90.0 -225.0 100.0 -225.0 110.0 -225.0 118.0 -218.0 125.0 -210.0 125.0 -200.0 125.0 -190.0 118.0 -183.0 110.0 -175.0 100.0 -175.0 90.0 -175.0 83.0 -183.0 75.0 -190.0 75.0 -200.0 M175.05 -200.0 Q175.05 -210.0 183.05 -218.0 190.05 -225.0 200.05 -225.0 210.05 -225.0 218.05 -218.0 225.05 -210.0 225.05 -200.0 225.05 -190.0 218.05 -183.0 210.05 -175.0 200.05 -175.0 190.05 -175.0 183.05 -183.0 175.05 -190.0 175.05 -200.0 175.05 -210.0 183.05 -218.0 190.05 -225.0 200.05 -225.0 210.05 -225.0 218.05 -218.0 225.05 -210.0 225.05 -200.0 225.05 -190.0 218.05 -183.0 210.05 -175.0 200.05 -175.0 190.05 -175.0 183.05 -183.0 175.05 -190.0 175.05 -200.0;M75.0 -916.8 Q75.0 -926.8 83.0 -934.8 90.0 -941.8 100.0 -941.8 110.0 -941.8 118.0 -934.8 125.0 -926.8 125.0 -916.8 125.0 -906.8 118.0 -899.8 110.0 -891.8 100.0 -891.8 90.0 -891.8 83.0 -899.8 75.0 -906.8 75.0 -916.8 75.0 -926.8 83.0 -934.8 90.0 -941.8 100.0 -941.8 110.0 -941.8 118.0 -934.8 125.0 -926.8 125.0 -916.8 125.0 -906.8 118.0 -899.8 110.0 -891.8 100.0 -891.8 90.0 -891.8 83.0 -899.8 75.0 -906.8 75.0 -916.8 M175.05 -916.8 Q175.05 -926.8 183.05 -934.8 190.05 -941.8 200.05 -941.8 210.05 -941.8 218.05 -934.8 225.05 -926.8 225.05 -916.8 225.05 -906.8 218.05 -899.8 210.05 -891.8 200.05 -891.8 190.05 -891.8 183.05 -899.8 175.05 -906.8 175.05 -916.8 175.05 -926.8 183.05 -934.8 190.05 -941.8 200.05 -941.8 210.05 -941.8 218.05 -934.8 225.05 -926.8 225.05 -916.8 225.05 -906.8 218.05 -899.8 210.05 -891.8 200.05 -891.8 190.05 -891.8 183.05 -899.8 175.05 -906.8 175.05 -916.8"/>
    </path>
    <path d="M100.0 -100.0 L200.05 -100.0 100.0 -100.0 Z" fill="none" stroke="#000000" stroke-linecap="round" stroke-linejoin="round" stroke-width="20.0">
      <animate attributeName="stroke" dur="2s" repeatCount="indefinite" values="#000000;#000001"/>
      <animate attributeName="stroke-width" dur="2s" repeatCount="indefinite" values="20.0;20.0"/>
      <animate attributeName="fill-opacity" dur="2s" repeatCount="indefinite" values="1.0;1.0"/>
      <animate attributeName="d" dur="2s" repeatCount="indefinite" values="M100.0 -100.0 L200.05 -100.0 100.0 -100.0 Z;M100.0 -816.8 L200.05 -816.8 100.0 -816.8 Z"/>
    </path>
  </g>
</svg>
