<?xml version="1.0" encoding="UTF-8" standalone="no"?>
<svg xmlns:ffdec="https://www.free-decompiler.com/flash" xmlns:xlink="http://www.w3.org/1999/xlink" ffdec:objectType="morphshape" height="410.0px" width="410.0px" xmlns="http://www.w3.org/2000/svg">
  <g transform="matrix(1.0, 0.0, 0.0, 1.0, 205.0, 405.0)">
    <path d="M-200.0 -266.65 L-200.0 -133.3 -66.65 -133.3 -66.65 0.0 66.7 0.0 66.7 -133.3 200.0 -133.3 200.0 -266.65 66.7 -266.65 66.7 -400.0 -66.65 -400.0 -66.65 -266.65 -200.0 -266.65" fill="#00cc00" fill-rule="evenodd" stroke="none">
      <animate attributeName="fill" dur="2s" repeatCount="indefinite" values="#00cc00;#00cc01"/>
      <animate attributeName="fill-opacity" dur="2s" repeatCount="indefinite" values="1.0;1.0"/>
      <animate attributeName="d" dur="2s" repeatCount="indefinite" values="M-200.0 -266.65 L-200.0 -133.3 -66.65 -133.3 -66.65 0.0 66.7 0.0 66.7 -133.3 200.0 -133.3 200.0 -266.65 66.7 -266.65 66.7 -400.0 -66.65 -400.0 -66.65 -266.65 -200.0 -266.65;M-200.0 -266.65 L-200.0 -133.3 -66.65 -133.3 -66.65 0.0 66.7 0.0 66.7 -133.3 200.0 -133.3 200.0 -266.65 66.7 -266.65 66.7 -400.0 -66.65 -400.0 -66.65 -266.65 -200.0 -266.65"/>
    </path>
    <path d="M66.7 -133.3 L66.7 0.0 200.0 -133.3 66.7 -133.3 M66.7 -400.0 L66.7 -266.65 200.0 -266.65 200.0 -400.0 66.7 -400.0 M-200.0 -133.3 L-66.65 0.0 -66.65 -133.3 -200.0 -133.3 M-200.0 -400.0 L-200.0 -266.65 -66.65 -266.65 -66.65 -400.0 -200.0 -400.0" fill="#00ff33" fill-rule="evenodd" stroke="none">
      <animate attributeName="fill" dur="2s" repeatCount="indefinite" values="#00ff33;#00ff34"/>
      <animate attributeName="fill-opacity" dur="2s" repeatCount="indefinite" values="1.0;1.0"/>
      <animate attributeName="d" dur="2s" repeatCount="indefinite" values="M66.7 -133.3 L66.7 0.0 200.0 -133.3 66.7 -133.3 M66.7 -400.0 L66.7 -266.65 200.0 -266.65 200.0 -400.0 66.7 -400.0 M-200.0 -133.3 L-66.65 0.0 -66.65 -133.3 -200.0 -133.3 M-200.0 -400.0 L-200.0 -266.65 -66.65 -266.65 -66.65 -400.0 -200.0 -400.0;M66.7 -133.3 L66.7 0.0 200.0 -133.3 66.7 -133.3 M66.7 -400.0 L66.7 -266.65 200.0 -266.65 200.0 -400.0 66.7 -400.0 M-200.0 -133.3 L-66.65 0.0 -66.65 -133.3 -200.0 -133.3 M-200.0 -400.0 L-200.0 -266.65 -66.65 -266.65 -66.65 -400.0 -200.0 -400.0"/>
    </path>
    <path d="M-200.0 -400.0 L-66.65 -400.0 66.7 -400.0 200.0 -400.0 200.0 -266.65 200.0 -133.3 66.7 0.0 -66.65 0.0 -200.0 -133.3 -200.0 -266.65 -200.0 -400.0 M-200.0 -266.65 L-66.65 -266.65 -66.65 -400.0 66.7 -400.0 66.7 -266.65 200.0 -266.65 200.0 -133.3 66.7 -133.3 66.7 0.0 -66.65 0.0 -66.65 -133.3 -200.0 -133.3 -200.0 -266.65 M-200.0 -400.0 L-66.65 -400.0 -66.65 -266.65 -200.0 -266.65 -200.0 -400.0 M-200.0 -133.3 L-66.65 -133.3 -66.65 0.0 -200.0 -133.3 M66.7 -400.0 L200.0 -400.0 200.0 -266.65 66.7 -266.65 66.7 -400.0 M66.7 -133.3 L200.0 -133.3 66.7 0.0 66.7 -133.3 Z" fill="none" stroke="#009900" stroke-linecap="round" stroke-linejoin="round" stroke-width="10.0">
      <animate attributeName="stroke" dur="2s" repeatCount="indefinite" values="#009900;#009901"/>
      <animate attributeName="stroke-width" dur="2s" repeatCount="indefinite" values="10.0;10.0"/>
      <animate attributeName="fill-opacity" dur="2s" repeatCount="indefinite" values="1.0;1.0"/>
      <animate attributeName="d" dur="2s" repeatCount="indefinite" values="M-200.0 -400.0 L-66.65 -400.0 66.7 -400.0 200.0 -400.0 200.0 -266.65 200.0 -133.3 66.7 0.0 -66.65 0.0 -200.0 -133.3 -200.0 -266.65 -200.0 -400.0 M-200.0 -266.65 L-66.65 -266.65 -66.65 -400.0 66.7 -400.0 66.7 -266.65 200.0 -266.65 200.0 -133.3 66.7 -133.3 66.7 0.0 -66.65 0.0 -66.65 -133.3 -200.0 -133.3 -200.0 -266.65 M-200.0 -400.0 L-66.65 -400.0 -66.65 -266.65 -200.0 -266.65 -200.0 -400.0 M-200.0 -133.3 L-66.65 -133.3 -66.65 0.0 -200.0 -133.3 M66.7 -400.0 L200.0 -400.0 200.0 -266.65 66.7 -266.65 66.7 -400.0 M66.7 -133.3 L200.0 -133.3 66.7 0.0 66.7 -133.3 Z;M-200.0 -400.0 L-66.65 -400.0 66.7 -400.0 200.0 -400.0 200.0 -266.65 200.0 -133.3 66.7 0.0 -66.65 0.0 -200.0 -133.3 -200.0 -266.65 -200.0 -400.0 M-200.0 -266.65 L-66.65 -266.65 -66.65 -400.0 66.7 -400.0 66.7 -266.65 200.0 -266.65 200.0 -133.3 66.7 -133.3 66.7 0.0 -66.65 0.0 -66.65 -133.3 -200.0 -133.3 -200.0 -266.65 M-200.0 -400.0 L-66.65 -400.0 -66.65 -266.65 -200.0 -266.65 -200.0 -400.0 M-200.0 -133.3 L-66.65 -133.3 -66.65 0.0 -200.0 -133.3 M66.7 -400.0 L200.0 -400.0 200.0 -266.65 66.7 -266.65 66.7 -400.0 M66.7 -133.3 L200.0 -133.3 66.7 0.0 66.7 -133.3 Z"/>
    </path>
  </g>
</svg>
