<?xml version="1.0" encoding="UTF-8" standalone="no"?>
<svg xmlns:ffdec="https://www.free-decompiler.com/flash" xmlns:xlink="http://www.w3.org/1999/xlink" ffdec:objectType="morphshape" height="45.0px" width="45.0px" xmlns="http://www.w3.org/2000/svg">
  <g transform="matrix(1.0, 0.0, 0.0, 1.0, 22.5, 22.5)">
    <path d="M-22.5 0.0 Q-22.5 9.4 -15.95 15.9 -9.3 22.5 0.0 22.5 9.4 22.5 15.9 15.9 22.5 9.4 22.5 0.0 22.5 -9.3 15.9 -15.8 9.4 -22.5 0.0 -22.5 -9.3 -22.5 -15.95 -15.8 -22.5 -9.3 -22.5 0.0" fill="#00ffff" fill-opacity="0.5019608" fill-rule="evenodd" stroke="none">
      <animate attributeName="fill" dur="2s" repeatCount="indefinite" values="#00ffff;#00ffff"/>
      <animate attributeName="fill-opacity" dur="2s" repeatCount="indefinite" values="0.5019608;0.5019608"/>
      <animate attributeName="d" dur="2s" repeatCount="indefinite" values="M-22.5 0.0 Q-22.5 9.4 -15.95 15.9 -9.3 22.5 0.0 22.5 9.4 22.5 15.9 15.9 22.5 9.4 22.5 0.0 22.5 -9.3 15.9 -15.8 9.4 -22.5 0.0 -22.5 -9.3 -22.5 -15.95 -15.8 -22.5 -9.3 -22.5 0.0;M-15.0 0.0 Q-15.0 6.25 -10.65 10.6 -6.2 15.0 0.0 15.0 6.25 15.0 10.6 10.6 15.0 6.25 15.0 0.0 15.0 -6.2 10.6 -10.55 6.25 -15.0 0.0 -15.0 -6.2 -15.0 -10.65 -10.55 -15.0 -6.2 -15.0 0.0"/>
    </path>
    <path d="M-22.5 0.0 Q-22.5 -9.3 -15.95 -15.8 -9.3 -22.5 0.0 -22.5 9.4 -22.5 15.9 -15.8 22.5 -9.3 22.5 0.0 22.5 9.4 15.9 15.9 9.4 22.5 0.0 22.5 -9.3 22.5 -15.95 15.9 -22.5 9.4 -22.5 0.0 Z" fill="none" stroke="#000000" stroke-linecap="round" stroke-linejoin="round" stroke-opacity="0.0" stroke-width="0.0">
      <animate attributeName="stroke" dur="2s" repeatCount="indefinite" values="#000000;#000001"/>
      <animate attributeName="stroke-width" dur="2s" repeatCount="indefinite" values="0.0;0.0"/>
      <animate attributeName="fill-opacity" dur="2s" repeatCount="indefinite" values="0.0;0.0"/>
      <animate attributeName="d" dur="2s" repeatCount="indefinite" values="M-22.5 0.0 Q-22.5 -9.3 -15.95 -15.8 -9.3 -22.5 0.0 -22.5 9.4 -22.5 15.9 -15.8 22.5 -9.3 22.5 0.0 22.5 9.4 15.9 15.9 9.4 22.5 0.0 22.5 -9.3 22.5 -15.95 15.9 -22.5 9.4 -22.5 0.0 Z;M-15.0 0.0 Q-15.0 -6.2 -10.65 -10.55 -6.2 -15.0 0.0 -15.0 6.25 -15.0 10.6 -10.55 15.0 -6.2 15.0 0.0 15.0 6.25 10.6 10.6 6.25 15.0 0.0 15.0 -6.2 15.0 -10.65 10.6 -15.0 6.25 -15.0 0.0 Z"/>
    </path>
  </g>
</svg>
