<?xml version="1.0" encoding="UTF-8" standalone="no"?>
<svg xmlns:ffdec="https://www.free-decompiler.com/flash" xmlns:xlink="http://www.w3.org/1999/xlink" ffdec:objectType="morphshape" height="63.25px" width="45.75px" xmlns="http://www.w3.org/2000/svg">
  <g transform="matrix(1.0, 0.0, 0.0, 1.0, 27.25, 21.1)">
    <path d="M-26.25 -20.1 L-26.25 -11.35 8.75 -11.35 8.75 6.15 -21.0 6.15 -21.0 9.65 -17.5 9.65 -17.5 14.95 8.75 14.95 8.75 32.4 -26.25 32.4 -26.25 41.15 8.75 41.15 8.75 35.9 12.25 35.9 12.25 32.4 17.5 32.4 17.5 14.9 8.75 14.9 8.75 9.65 12.25 9.65 12.25 6.15 17.5 6.15 17.5 -11.35 12.25 -11.35 12.25 -14.85 8.75 -14.85 8.75 -20.1 -26.25 -20.1" fill="#ffffff" fill-rule="evenodd" stroke="none">
      <animate attributeName="fill" dur="2s" repeatCount="indefinite" values="#ffffff;#ffffff"/>
      <animate attributeName="fill-opacity" dur="2s" repeatCount="indefinite" values="1.0;0.3019608"/>
      <animate attributeName="d" dur="2s" repeatCount="indefinite" values="M-26.25 -20.1 L-26.25 -11.35 8.75 -11.35 8.75 6.15 -21.0 6.15 -21.0 9.65 -17.5 9.65 -17.5 14.95 8.75 14.95 8.75 32.4 -26.25 32.4 -26.25 41.15 8.75 41.15 8.75 35.9 12.25 35.9 12.25 32.4 17.5 32.4 17.5 14.9 8.75 14.9 8.75 9.65 12.25 9.65 12.25 6.15 17.5 6.15 17.5 -11.35 12.25 -11.35 12.25 -14.85 8.75 -14.85 8.75 -20.1 -26.25 -20.1;M-26.25 -20.1 L-26.25 -11.35 8.75 -11.35 8.75 6.15 -21.0 6.15 -21.0 9.65 -17.5 9.65 -17.5 14.95 8.75 14.95 8.75 32.4 -26.25 32.4 -26.25 41.15 8.75 41.15 8.75 35.9 12.25 35.9 12.25 32.4 17.5 32.4 17.5 14.9 8.75 14.9 8.75 9.65 12.25 9.65 12.25 6.15 17.5 6.15 17.5 -11.35 12.25 -11.35 12.25 -14.85 8.75 -14.85 8.75 -20.1 -26.25 -20.1"/>
    </path>
    <path d="M-26.25 -20.1 L8.75 -20.1 8.75 -14.85 12.25 -14.85 12.25 -11.35 17.5 -11.35 17.5 6.15 12.25 6.15 12.25 9.65 8.75 9.65 8.75 14.9 17.5 14.9 17.5 32.4 12.25 32.4 12.25 35.9 8.75 35.9 8.75 41.15 -26.25 41.15 -26.25 32.4 8.75 32.4 8.75 14.95 -17.5 14.95 -17.5 9.65 -21.0 9.65 -21.0 6.15 8.75 6.15 8.75 -11.35 -26.25 -11.35 -26.25 -20.1 8.75 -20.1 8.75 -14.85 12.25 -14.85 12.25 -11.35 17.5 -11.35 17.5 6.15 12.25 6.15 12.25 9.65 8.75 9.65 8.75 14.9 17.5 14.9 17.5 32.4 12.25 32.4 12.25 35.9 8.75 35.9 8.75 41.15 -26.25 41.15 -26.25 32.4 8.75 32.4 8.75 14.95 -17.5 14.95 -17.5 9.65 -21.0 9.65 -21.0 6.15 8.75 6.15 8.75 -11.35 -26.25 -11.35 -26.25 -20.1 Z" fill="none" stroke="#000000" stroke-linecap="round" stroke-linejoin="round" stroke-width="2.0">
      <animate attributeName="stroke" dur="2s" repeatCount="indefinite" values="#000000;#000001"/>
      <animate attributeName="stroke-width" dur="2s" repeatCount="indefinite" values="2.0;2.0"/>
      <animate attributeName="fill-opacity" dur="2s" repeatCount="indefinite" values="1.0;0.3019608"/>
      <animate attributeName="d" dur="2s" repeatCount="indefinite" values="M-26.25 -20.1 L8.75 -20.1 8.75 -14.85 12.25 -14.85 12.25 -11.35 17.5 -11.35 17.5 6.15 12.25 6.15 12.25 9.65 8.75 9.65 8.75 14.9 17.5 14.9 17.5 32.4 12.25 32.4 12.25 35.9 8.75 35.9 8.75 41.15 -26.25 41.15 -26.25 32.4 8.75 32.4 8.75 14.95 -17.5 14.95 -17.5 9.65 -21.0 9.65 -21.0 6.15 8.75 6.15 8.75 -11.35 -26.25 -11.35 -26.25 -20.1 8.75 -20.1 8.75 -14.85 12.25 -14.85 12.25 -11.35 17.5 -11.35 17.5 6.15 12.25 6.15 12.25 9.65 8.75 9.65 8.75 14.9 17.5 14.9 17.5 32.4 12.25 32.4 12.25 35.9 8.75 35.9 8.75 41.15 -26.25 41.15 -26.25 32.4 8.75 32.4 8.75 14.95 -17.5 14.95 -17.5 9.65 -21.0 9.65 -21.0 6.15 8.75 6.15 8.75 -11.35 -26.25 -11.35 -26.25 -20.1 Z;M-26.25 -20.1 L8.75 -20.1 8.75 -14.85 12.25 -14.85 12.25 -11.35 17.5 -11.35 17.5 6.15 12.25 6.15 12.25 9.65 8.75 9.65 8.75 14.9 17.5 14.9 17.5 32.4 12.25 32.4 12.25 35.9 8.75 35.9 8.75 41.15 -26.25 41.15 -26.25 32.4 8.75 32.4 8.75 14.95 -17.5 14.95 -17.5 9.65 -21.0 9.65 -21.0 6.15 8.75 6.15 8.75 -11.35 -26.25 -11.35 -26.25 -20.1 8.75 -20.1 8.75 -14.85 12.25 -14.85 12.25 -11.35 17.5 -11.35 17.5 6.15 12.25 6.15 12.25 9.65 8.75 9.65 8.75 14.9 17.5 14.9 17.5 32.4 12.25 32.4 12.25 35.9 8.75 35.9 8.75 41.15 -26.25 41.15 -26.25 32.4 8.75 32.4 8.75 14.95 -17.5 14.95 -17.5 9.65 -21.0 9.65 -21.0 6.15 8.75 6.15 8.75 -11.35 -26.25 -11.35 -26.25 -20.1 Z"/>
    </path>
  </g>
</svg>
