<?xml version="1.0" encoding="UTF-8" standalone="no"?>
<svg xmlns:ffdec="https://www.free-decompiler.com/flash" xmlns:xlink="http://www.w3.org/1999/xlink" ffdec:objectType="morphshape" height="50.0px" width="50.0px" xmlns="http://www.w3.org/2000/svg">
  <g transform="matrix(1.0, 0.0, 0.0, 1.0, 25.0, 25.0)">
    <path d="M-25.0 0.0 L-10.65 4.4 -17.65 17.65 -4.4 10.65 0.05 25.0 4.45 10.65 17.7 17.65 10.7 4.4 25.0 0.0 10.7 -4.45 17.7 -17.7 4.45 -10.7 0.05 -25.0 -4.4 -10.7 -17.65 -17.7 -10.65 -4.45 -25.0 0.0" fill="#8c8c3c" fill-rule="evenodd" stroke="none">
      <animate attributeName="fill" dur="2s" repeatCount="indefinite" values="#8c8c3c;#46461f"/>
      <animate attributeName="fill-opacity" dur="2s" repeatCount="indefinite" values="1.0;1.0"/>
      <animate attributeName="d" dur="2s" repeatCount="indefinite" values="M-25.0 0.0 L-10.65 4.4 -17.65 17.65 -4.4 10.65 0.05 25.0 4.45 10.65 17.7 17.65 10.7 4.4 25.0 0.0 10.7 -4.45 17.7 -17.7 4.45 -10.7 0.05 -25.0 -4.4 -10.7 -17.65 -17.7 -10.65 -4.45 -25.0 0.0;M-25.0 0.0 L-10.65 4.4 -17.65 17.65 -4.4 10.65 0.05 25.0 4.45 10.65 17.7 17.65 10.7 4.4 25.0 0.0 10.7 -4.45 17.7 -17.7 4.45 -10.7 0.05 -25.0 -4.4 -10.7 -17.65 -17.7 -10.65 -4.45 -25.0 0.0"/>
    </path>
    <path d="M-25.0 0.0 L-10.65 -4.45 -17.65 -17.7 -4.4 -10.7 0.05 -25.0 4.45 -10.7 17.7 -17.7 10.7 -4.45 25.0 0.0 10.7 4.4 17.7 17.65 4.45 10.65 0.05 25.0 -4.4 10.65 -17.65 17.65 -10.65 4.4 -25.0 0.0 Z" fill="none" stroke="#000000" stroke-linecap="round" stroke-linejoin="round" stroke-opacity="0.0" stroke-width="0.0">
      <animate attributeName="stroke" dur="2s" repeatCount="indefinite" values="#000000;#000001"/>
      <animate attributeName="stroke-width" dur="2s" repeatCount="indefinite" values="0.0;0.0"/>
      <animate attributeName="fill-opacity" dur="2s" repeatCount="indefinite" values="0.0;0.0"/>
      <animate attributeName="d" dur="2s" repeatCount="indefinite" values="M-25.0 0.0 L-10.65 -4.45 -17.65 -17.7 -4.4 -10.7 0.05 -25.0 4.45 -10.7 17.7 -17.7 10.7 -4.45 25.0 0.0 10.7 4.4 17.7 17.65 4.45 10.65 0.05 25.0 -4.4 10.65 -17.65 17.65 -10.65 4.4 -25.0 0.0 Z;M-25.0 0.0 L-10.65 -4.45 -17.65 -17.7 -4.4 -10.7 0.05 -25.0 4.45 -10.7 17.7 -17.7 10.7 -4.45 25.0 0.0 10.7 4.4 17.7 17.65 4.45 10.65 0.05 25.0 -4.4 10.65 -17.65 17.65 -10.65 4.4 -25.0 0.0 Z"/>
    </path>
  </g>
</svg>
