<?xml version="1.0" encoding="UTF-8" standalone="no"?>
<svg xmlns:ffdec="https://www.free-decompiler.com/flash" xmlns:xlink="http://www.w3.org/1999/xlink" ffdec:objectType="morphshape" height="65.0px" width="65.0px" xmlns="http://www.w3.org/2000/svg">
  <g transform="matrix(1.0, 0.0, 0.0, 1.0, 32.5, 32.5)">
    <path d="M-30.0 0.0 Q-30.0 -12.45 -21.25 -21.25 -12.45 -30.0 0.0 -30.0 12.4 -30.0 21.2 -21.25 30.0 -12.45 30.0 0.0 30.0 12.4 21.2 21.2 12.4 30.0 0.0 30.0 -12.45 30.0 -21.25 21.2 -30.0 12.4 -30.0 0.0 -30.0 -12.45 -21.25 -21.25 -12.45 -30.0 0.0 -30.0 12.4 -30.0 21.2 -21.25 30.0 -12.45 30.0 0.0 30.0 12.4 21.2 21.2 12.4 30.0 0.0 30.0 -12.45 30.0 -21.25 21.2 -30.0 12.4 -30.0 0.0 Z" fill="none" stroke="#ff0000" stroke-linecap="round" stroke-linejoin="round" stroke-opacity="0.4" stroke-width="5.0">
      <animate attributeName="stroke" dur="2s" repeatCount="indefinite" values="#ff0000;#ff0001"/>
      <animate attributeName="stroke-width" dur="2s" repeatCount="indefinite" values="5.0;5.0"/>
      <animate attributeName="fill-opacity" dur="2s" repeatCount="indefinite" values="0.4;1.0"/>
      <animate attributeName="d" dur="2s" repeatCount="indefinite" values="M-30.0 0.0 Q-30.0 -12.45 -21.25 -21.25 -12.45 -30.0 0.0 -30.0 12.4 -30.0 21.2 -21.25 30.0 -12.45 30.0 0.0 30.0 12.4 21.2 21.2 12.4 30.0 0.0 30.0 -12.45 30.0 -21.25 21.2 -30.0 12.4 -30.0 0.0 -30.0 -12.45 -21.25 -21.25 -12.45 -30.0 0.0 -30.0 12.4 -30.0 21.2 -21.25 30.0 -12.45 30.0 0.0 30.0 12.4 21.2 21.2 12.4 30.0 0.0 30.0 -12.45 30.0 -21.25 21.2 -30.0 12.4 -30.0 0.0 Z;M-15.0 0.0 Q-15.0 -6.3 -10.65 -10.65 -6.3 -15.0 0.0 -15.0 6.15 -15.0 10.65 -10.65 15.0 -6.3 15.0 0.0 15.0 6.15 10.65 10.65 6.15 15.0 0.0 15.0 -6.3 15.0 -10.65 10.65 -15.0 6.15 -15.0 0.0 -15.0 -6.3 -10.65 -10.65 -6.3 -15.0 0.0 -15.0 6.15 -15.0 10.65 -10.65 15.0 -6.3 15.0 0.0 15.0 6.15 10.65 10.65 6.15 15.0 0.0 15.0 -6.3 15.0 -10.65 10.65 -15.0 6.15 -15.0 0.0 Z"/>
    </path>
  </g>
</svg>
