<?xml version="1.0" encoding="UTF-8" standalone="no"?>
<svg xmlns:ffdec="https://www.free-decompiler.com/flash" xmlns:xlink="http://www.w3.org/1999/xlink" ffdec:objectType="morphshape" height="35.0px" width="35.0px" xmlns="http://www.w3.org/2000/svg">
  <g transform="matrix(1.0, 0.0, 0.0, 1.0, 17.5, 17.5)">
    <path d="M-15.0 0.0 Q-15.0 -6.3 -10.65 -10.65 -6.3 -15.0 0.0 -15.0 6.15 -15.0 10.65 -10.65 15.0 -6.3 15.0 0.0 15.0 6.15 10.65 10.65 6.15 15.0 0.0 15.0 -6.3 15.0 -10.65 10.65 -15.0 6.15 -15.0 0.0 -15.0 -6.3 -10.65 -10.65 -6.3 -15.0 0.0 -15.0 6.15 -15.0 10.65 -10.65 15.0 -6.3 15.0 0.0 15.0 6.15 10.65 10.65 6.15 15.0 0.0 15.0 -6.3 15.0 -10.65 10.65 -15.0 6.15 -15.0 0.0 Z" fill="none" stroke="#ff0000" stroke-linecap="round" stroke-linejoin="round" stroke-width="5.0">
      <animate attributeName="stroke" dur="2s" repeatCount="indefinite" values="#ff0000;#ff0001"/>
      <animate attributeName="stroke-width" dur="2s" repeatCount="indefinite" values="5.0;5.0"/>
      <animate attributeName="fill-opacity" dur="2s" repeatCount="indefinite" values="1.0;0.0"/>
      <animate attributeName="d" dur="2s" repeatCount="indefinite" values="M-15.0 0.0 Q-15.0 -6.3 -10.65 -10.65 -6.3 -15.0 0.0 -15.0 6.15 -15.0 10.65 -10.65 15.0 -6.3 15.0 0.0 15.0 6.15 10.65 10.65 6.15 15.0 0.0 15.0 -6.3 15.0 -10.65 10.65 -15.0 6.15 -15.0 0.0 -15.0 -6.3 -10.65 -10.65 -6.3 -15.0 0.0 -15.0 6.15 -15.0 10.65 -10.65 15.0 -6.3 15.0 0.0 15.0 6.15 10.65 10.65 6.15 15.0 0.0 15.0 -6.3 15.0 -10.65 10.65 -15.0 6.15 -15.0 0.0 Z;M-5.0 0.0 Q-5.0 -2.1 -3.55 -3.55 -2.1 -5.0 0.0 -5.0 2.05 -5.0 3.55 -3.55 5.0 -2.1 5.0 0.0 5.0 2.05 3.55 3.55 2.05 5.0 0.0 5.0 -2.1 5.0 -3.55 3.55 -5.0 2.05 -5.0 0.0 -5.0 -2.1 -3.55 -3.55 -2.1 -5.0 0.0 -5.0 2.05 -5.0 3.55 -3.55 5.0 -2.1 5.0 0.0 5.0 2.05 3.55 3.55 2.05 5.0 0.0 5.0 -2.1 5.0 -3.55 3.55 -5.0 2.05 -5.0 0.0 Z"/>
    </path>
  </g>
</svg>
