<?xml version="1.0" encoding="UTF-8" standalone="no"?>
<svg xmlns:ffdec="https://www.free-decompiler.com/flash" xmlns:xlink="http://www.w3.org/1999/xlink" ffdec:objectType="shape" height="25.0px" width="86.8px" xmlns="http://www.w3.org/2000/svg">
  <g transform="matrix(1.0, 0.0, 0.0, 1.0, -6.6, -75.0)">
    <path d="M36.0 82.0 L36.0 80.0 37.0 80.0 37.0 82.0 38.0 82.0 38.0 81.0 39.0 81.0 39.0 79.0 38.0 79.0 38.0 78.0 39.0 78.0 39.0 79.0 40.0 79.0 40.0 81.0 39.0 81.0 39.0 83.0 41.0 83.0 41.0 82.0 43.0 82.0 43.0 83.0 44.0 83.0 44.0 84.0 43.0 84.0 43.0 83.0 41.0 83.0 41.0 84.0 40.0 84.0 40.0 85.0 42.0 85.0 42.0 86.0 40.0 86.0 40.0 87.0 38.0 87.0 38.0 88.0 39.0 88.0 39.0 90.0 38.0 90.0 38.0 88.0 36.0 88.0 36.0 89.0 35.0 89.0 35.0 91.0 34.0 91.0 34.0 92.0 33.0 92.0 33.0 93.0 32.0 93.0 32.0 92.0 33.0 92.0 33.0 91.0 34.0 91.0 34.0 90.0 32.0 90.0 32.0 88.0 31.0 88.0 31.0 89.0 30.0 89.0 30.0 90.0 29.0 90.0 29.0 89.0 30.0 89.0 30.0 88.0 31.0 88.0 31.0 87.0 33.0 87.0 33.0 86.0 34.0 86.0 34.0 84.0 32.0 84.0 32.0 83.0 34.0 83.0 34.0 84.0 35.0 84.0 35.0 82.0 36.0 82.0 36.0 83.0 37.0 83.0 37.0 82.0 36.0 82.0 M39.0 85.0 L39.0 83.0 37.0 83.0 37.0 84.0 38.0 84.0 38.0 85.0 39.0 85.0 39.0 86.0 40.0 86.0 40.0 85.0 39.0 85.0 M37.0 86.0 L37.0 87.0 38.0 87.0 38.0 86.0 37.0 86.0 37.0 85.0 36.0 85.0 36.0 86.0 37.0 86.0 M34.0 86.0 L34.0 87.0 33.0 87.0 33.0 89.0 35.0 89.0 35.0 88.0 36.0 88.0 36.0 87.0 35.0 87.0 35.0 86.0 34.0 86.0 M36.0 85.0 L36.0 84.0 35.0 84.0 35.0 85.0 36.0 85.0" fill="#cccccc" fill-rule="evenodd" stroke="none"/>
    <path d="M37.0 83.0 L39.0 83.0 39.0 85.0 38.0 85.0 38.0 84.0 37.0 84.0 37.0 83.0 M34.0 86.0 L35.0 86.0 35.0 87.0 36.0 87.0 36.0 88.0 35.0 88.0 35.0 89.0 33.0 89.0 33.0 87.0 34.0 87.0 34.0 86.0" fill="#ffffff" fill-rule="evenodd" stroke="none"/>
    <path d="M29.0 78.0 L36.5 85.5 44.0 78.0 M44.0 93.0 L36.5 85.5 29.0 93.0" fill="none" stroke="#003300" stroke-linecap="round" stroke-linejoin="round" stroke-width="1.5"/>
    <path d="M63.0 82.0 L63.0 80.0 64.0 80.0 64.0 82.0 65.0 82.0 65.0 81.0 66.0 81.0 66.0 79.0 65.0 79.0 65.0 78.0 66.0 78.0 66.0 79.0 67.0 79.0 67.0 81.0 66.0 81.0 66.0 83.0 68.0 83.0 68.0 82.0 70.0 82.0 70.0 83.0 71.0 83.0 71.0 84.0 70.0 84.0 70.0 83.0 68.0 83.0 68.0 84.0 67.0 84.0 67.0 85.0 69.0 85.0 69.0 86.0 67.0 86.0 67.0 87.0 65.0 87.0 65.0 88.0 66.0 88.0 66.0 90.0 65.0 90.0 65.0 88.0 63.0 88.0 63.0 89.0 62.0 89.0 62.0 91.0 61.0 91.0 61.0 92.0 60.0 92.0 60.0 93.0 59.0 93.0 59.0 92.0 60.0 92.0 60.0 91.0 61.0 91.0 61.0 90.0 59.0 90.0 59.0 88.0 58.0 88.0 58.0 89.0 57.0 89.0 57.0 90.0 56.0 90.0 56.0 89.0 57.0 89.0 57.0 88.0 58.0 88.0 58.0 87.0 60.0 87.0 60.0 86.0 61.0 86.0 61.0 84.0 59.0 84.0 59.0 83.0 61.0 83.0 61.0 84.0 62.0 84.0 62.0 82.0 63.0 82.0 63.0 83.0 64.0 83.0 64.0 82.0 63.0 82.0 M66.0 85.0 L66.0 83.0 64.0 83.0 64.0 84.0 65.0 84.0 65.0 85.0 66.0 85.0 66.0 86.0 67.0 86.0 67.0 85.0 66.0 85.0 M64.0 85.0 L63.0 85.0 63.0 86.0 64.0 86.0 64.0 85.0 M64.0 86.0 L64.0 87.0 65.0 87.0 65.0 86.0 64.0 86.0 M61.0 86.0 L61.0 87.0 60.0 87.0 60.0 89.0 62.0 89.0 62.0 88.0 63.0 88.0 63.0 87.0 62.0 87.0 62.0 86.0 61.0 86.0 M62.0 84.0 L62.0 85.0 63.0 85.0 63.0 84.0 62.0 84.0" fill="#cccccc" fill-rule="evenodd" stroke="none"/>
    <path d="M64.0 83.0 L66.0 83.0 66.0 85.0 65.0 85.0 65.0 84.0 64.0 84.0 64.0 83.0 M61.0 86.0 L62.0 86.0 62.0 87.0 63.0 87.0 63.0 88.0 62.0 88.0 62.0 89.0 60.0 89.0 60.0 87.0 61.0 87.0 61.0 86.0" fill="#ffffff" fill-rule="evenodd" stroke="none"/>
    <path d="M71.0 93.0 L63.5 85.5 56.0 93.0 M56.0 78.0 L63.5 85.5 71.0 78.0" fill="none" stroke="#330000" stroke-linecap="round" stroke-linejoin="round" stroke-width="1.5"/>
    <path d="M50.0 75.0 L50.0 100.0 Q29.3 100.0 14.65 85.3 9.8 80.5 6.6 75.0 L50.0 75.0" fill="url(#gradient0)" fill-rule="evenodd" stroke="none"/>
    <path d="M50.0 75.0 L93.4 75.0 Q90.15 80.5 85.3 85.3 70.7 100.0 50.0 100.0 L50.0 75.0" fill="url(#gradient1)" fill-rule="evenodd" stroke="none"/>
  </g>
  <defs>
    <radialGradient cx="0" cy="0" gradientTransform="matrix(0.0549, 0.0, 0.0, 0.0549, 12.0, 77.0)" gradientUnits="userSpaceOnUse" id="gradient0" r="819.2" spreadMethod="pad">
      <stop offset="0.0" stop-color="#66ff66" stop-opacity="0.0"/>
      <stop offset="1.0" stop-color="#66ff66" stop-opacity="0.5019608"/>
    </radialGradient>
    <radialGradient cx="0" cy="0" gradientTransform="matrix(0.0518, 0.0, 0.0, 0.0518, 51.0, 77.0)" gradientUnits="userSpaceOnUse" id="gradient1" r="819.2" spreadMethod="pad">
      <stop offset="0.0" stop-color="#666666" stop-opacity="0.0"/>
      <stop offset="1.0" stop-color="#ff6666" stop-opacity="0.5019608"/>
    </radialGradient>
  </defs>
</svg>
