<?xml version="1.0" encoding="UTF-8" standalone="no"?>
<svg xmlns:ffdec="https://www.free-decompiler.com/flash" xmlns:xlink="http://www.w3.org/1999/xlink" ffdec:objectType="shape" height="15.0px" width="15.0px" xmlns="http://www.w3.org/2000/svg">
  <g transform="matrix(1.0, 0.0, 0.0, 1.0, -20.0, -54.0)">
    <path d="M27.0 58.0 L27.0 56.0 28.0 56.0 28.0 58.0 29.0 58.0 29.0 57.0 30.0 57.0 30.0 55.0 29.0 55.0 29.0 54.0 30.0 54.0 30.0 55.0 31.0 55.0 31.0 57.0 30.0 57.0 30.0 59.0 32.0 59.0 32.0 58.0 34.0 58.0 34.0 59.0 35.0 59.0 35.0 60.0 34.0 60.0 34.0 59.0 32.0 59.0 32.0 60.0 31.0 60.0 31.0 61.0 33.0 61.0 33.0 62.0 31.0 62.0 31.0 63.0 29.0 63.0 29.0 64.0 30.0 64.0 30.0 66.0 29.0 66.0 29.0 64.0 27.0 64.0 27.0 65.0 26.0 65.0 26.0 67.0 25.0 67.0 25.0 68.0 24.0 68.0 24.0 69.0 23.0 69.0 23.0 68.0 24.0 68.0 24.0 67.0 25.0 67.0 25.0 66.0 23.0 66.0 23.0 64.0 22.0 64.0 22.0 65.0 21.0 65.0 21.0 66.0 20.0 66.0 20.0 65.0 21.0 65.0 21.0 64.0 22.0 64.0 22.0 63.0 24.0 63.0 24.0 62.0 25.0 62.0 25.0 60.0 23.0 60.0 23.0 59.0 25.0 59.0 25.0 60.0 26.0 60.0 26.0 58.0 27.0 58.0 27.0 59.0 28.0 59.0 28.0 58.0 27.0 58.0 M30.0 61.0 L30.0 59.0 28.0 59.0 28.0 60.0 29.0 60.0 29.0 61.0 30.0 61.0 30.0 62.0 31.0 62.0 31.0 61.0 30.0 61.0 M28.0 61.0 L27.0 61.0 27.0 62.0 28.0 62.0 28.0 61.0 M28.0 62.0 L28.0 63.0 29.0 63.0 29.0 62.0 28.0 62.0 M25.0 62.0 L25.0 63.0 24.0 63.0 24.0 65.0 26.0 65.0 26.0 64.0 27.0 64.0 27.0 63.0 26.0 63.0 26.0 62.0 25.0 62.0 M26.0 60.0 L26.0 61.0 27.0 61.0 27.0 60.0 26.0 60.0" fill="#cccccc" fill-rule="evenodd" stroke="none"/>
    <path d="M28.0 59.0 L30.0 59.0 30.0 61.0 29.0 61.0 29.0 60.0 28.0 60.0 28.0 59.0 M25.0 62.0 L26.0 62.0 26.0 63.0 27.0 63.0 27.0 64.0 26.0 64.0 26.0 65.0 24.0 65.0 24.0 63.0 25.0 63.0 25.0 62.0" fill="#ffffff" fill-rule="evenodd" stroke="none"/>
  </g>
</svg>
