<?xml version="1.0" encoding="UTF-8" standalone="no"?>
<svg xmlns:ffdec="https://www.free-decompiler.com/flash" xmlns:xlink="http://www.w3.org/1999/xlink" ffdec:objectType="shape" height="103.0px" width="103.0px" xmlns="http://www.w3.org/2000/svg">
  <g transform="matrix(1.0, 0.0, 0.0, 1.0, 1.5, 51.5)">
    <path d="M50.0 -50.0 Q70.7 -50.0 85.35 -35.35 100.0 -20.7 100.0 0.0 100.0 20.7 85.35 35.35 70.7 50.0 50.0 50.0 29.3 50.0 14.65 35.35 0.0 20.7 0.0 0.0 0.0 -20.7 14.65 -35.35 29.3 -50.0 50.0 -50.0" fill="url(#gradient0)" fill-rule="evenodd" stroke="none"/>
    <path d="M50.0 -50.0 Q70.7 -50.0 85.35 -35.35 100.0 -20.7 100.0 0.0 100.0 20.7 85.35 35.35 70.7 50.0 50.0 50.0 29.3 50.0 14.65 35.35 0.0 20.7 0.0 0.0 0.0 -20.7 14.65 -35.35 29.3 -50.0 50.0 -50.0 Z" fill="none" stroke="#000000" stroke-linecap="round" stroke-linejoin="round" stroke-width="3.0"/>
    <path d="M100.0 0.0 Q100.0 13.85 93.4 25.0 L6.6 25.0 Q0.0 13.85 0.0 0.0 L100.0 0.0" fill="#329696" fill-rule="evenodd" stroke="none"/>
    <path d="M100.0 0.0 L0.0 0.0 Q0.0 13.85 6.6 25.0 L93.4 25.0 Q100.0 13.85 100.0 0.0 Z" fill="none" stroke="#000000" stroke-linecap="round" stroke-linejoin="round" stroke-width="3.0"/>
  </g>
  <defs>
    <radialGradient cx="0" cy="0" gradientTransform="matrix(0.1171, 0.0, 0.0, 0.1171, 23.0, -37.0)" gradientUnits="userSpaceOnUse" id="gradient0" r="819.2" spreadMethod="pad">
      <stop offset="0.0" stop-color="#00fafa" stop-opacity="0.2"/>
      <stop offset="0.9803921568627451" stop-color="#00fafa" stop-opacity="0.4"/>
    </radialGradient>
  </defs>
</svg>
