<?xml version="1.0" encoding="UTF-8" standalone="no"?>
<svg xmlns:ffdec="https://www.free-decompiler.com/flash" xmlns:xlink="http://www.w3.org/1999/xlink" ffdec:objectType="frame" height="26.0px" width="26.0px" xmlns="http://www.w3.org/2000/svg">
  <g transform="matrix(1.0, 0.0, 0.0, 1.0, 0.5, 0.5)">
    <use ffdec:characterId="2629" height="26.0" transform="matrix(1.0, 0.0, 0.0, 1.0, -0.5, -0.5)" width="26.0" xlink:href="#shape0"/>
    <use ffdec:characterId="157" height="11.75" transform="matrix(1.0, 0.0, 0.0, 1.0025, 8.1, 7.0074)" width="7.5" xlink:href="#text0"/>
  </g>
  <defs>
    <g id="shape0" transform="matrix(1.0, 0.0, 0.0, 1.0, 0.5, 0.5)">
      <path d="M0.0 12.5 Q0.0 7.35 3.65 3.65 7.35 0.0 12.5 0.0 17.65 0.0 21.35 3.65 25.0 7.35 25.0 12.5 25.0 17.65 21.35 21.35 17.65 25.0 12.5 25.0 7.35 25.0 3.65 21.35 0.0 17.65 0.0 12.5" fill="#00ff00" fill-rule="evenodd" stroke="none"/>
      <path d="M21.35 21.35 Q17.65 25.0 12.5 25.0 7.35 25.0 3.65 21.35 0.0 17.65 0.0 12.5 0.0 7.35 3.65 3.65 7.35 0.0 12.5 0.0 17.65 0.0 21.35 3.65 25.0 7.35 25.0 12.5 25.0 17.65 21.35 21.35 M19.95 5.05 Q23.0 8.15 23.0 12.5 23.0 16.85 19.95 19.95 16.85 23.0 12.5 23.0 8.15 23.0 5.05 19.95 2.0 16.85 2.0 12.5 2.0 8.15 5.05 5.05 8.15 2.0 12.5 2.0 16.85 2.0 19.95 5.05 Z" fill="none" stroke="#009900" stroke-linecap="round" stroke-linejoin="round" stroke-width="1.0"/>
    </g>
    <g id="text0" transform="matrix(1.0, 0.0, 0.0, 1.0, -1.1, -3.0)">
      <g transform="matrix(1.0, 0.0, 0.0, 1.0, 0.0, 0.0)">
        <use fill="#009900" height="11.75" transform="matrix(0.0098, 0.0, 0.0, 0.0098, 1.0, 14.0)" width="7.5" xlink:href="#font_PF_Tempesta_Seven_G0"/>
      </g>
    </g>
    <g id="font_PF_Tempesta_Seven_G0">
      <path d="M384.0 -512.0 L384.0 -384.0 512.0 -384.0 512.0 -128.0 256.0 -128.0 256.0 -768.0 768.0 -768.0 768.0 -896.0 128.0 -896.0 128.0 -819.0 77.0 -819.0 77.0 -768.0 0.0 -768.0 0.0 -128.0 77.0 -128.0 77.0 -77.0 128.0 -77.0 128.0 0.0 768.0 0.0 768.0 -512.0 384.0 -512.0" fill-rule="evenodd" stroke="none"/>
    </g>
  </defs>
</svg>
