<?xml version="1.0" encoding="UTF-8" standalone="no"?>
<svg xmlns:ffdec="https://www.free-decompiler.com/flash" xmlns:xlink="http://www.w3.org/1999/xlink" ffdec:objectType="shape" height="26.0px" width="26.0px" xmlns="http://www.w3.org/2000/svg">
  <g transform="matrix(1.0, 0.0, 0.0, 1.0, 0.5, 0.5)">
    <path d="M0.0 12.5 Q0.0 7.35 3.65 3.65 7.35 0.0 12.5 0.0 17.65 0.0 21.35 3.65 25.0 7.35 25.0 12.5 25.0 17.65 21.35 21.35 17.65 25.0 12.5 25.0 7.35 25.0 3.65 21.35 0.0 17.65 0.0 12.5" fill="#ffff00" fill-rule="evenodd" stroke="none"/>
    <path d="M21.35 21.35 Q17.65 25.0 12.5 25.0 7.35 25.0 3.65 21.35 0.0 17.65 0.0 12.5 0.0 7.35 3.65 3.65 7.35 0.0 12.5 0.0 17.65 0.0 21.35 3.65 25.0 7.35 25.0 12.5 25.0 17.65 21.35 21.35 M19.95 5.05 Q23.0 8.15 23.0 12.5 23.0 16.85 19.95 19.95 16.85 23.0 12.5 23.0 8.15 23.0 5.05 19.95 2.0 16.85 2.0 12.5 2.0 8.15 5.05 5.05 8.15 2.0 12.5 2.0 16.85 2.0 19.95 5.05 Z" fill="none" stroke="#ff9900" stroke-linecap="round" stroke-linejoin="round" stroke-width="1.0"/>
  </g>
</svg>
